<?xml version="1.0" encoding="utf-8"?>
<!-- Generator: Adobe Illustrator 16.0.0, SVG Export Plug-In . SVG Version: 6.00 Build 0)  -->
<!DOCTYPE svg PUBLIC "-//W3C//DTD SVG 1.1//EN" "http://www.w3.org/Graphics/SVG/1.1/DTD/svg11.dtd" [
	<!ENTITY ns_extend "http://ns.adobe.com/Extensibility/1.0/">
	<!ENTITY ns_ai "http://ns.adobe.com/AdobeIllustrator/10.0/">
	<!ENTITY ns_graphs "http://ns.adobe.com/Graphs/1.0/">
	<!ENTITY ns_vars "http://ns.adobe.com/Variables/1.0/">
	<!ENTITY ns_imrep "http://ns.adobe.com/ImageReplacement/1.0/">
	<!ENTITY ns_sfw "http://ns.adobe.com/SaveForWeb/1.0/">
	<!ENTITY ns_custom "http://ns.adobe.com/GenericCustomNamespace/1.0/">
	<!ENTITY ns_adobe_xpath "http://ns.adobe.com/XPath/1.0/">
]>
<svg version="1.1" id="Слой_1" xmlns:x="&ns_extend;" xmlns:i="&ns_ai;" xmlns:graph="&ns_graphs;"
	 xmlns="http://www.w3.org/2000/svg" xmlns:xlink="http://www.w3.org/1999/xlink" x="0px" y="0px" width="975.715px"
	 height="553.992px" viewBox="0 0 975.715 553.992" enable-background="new 0 0 975.715 553.992" xml:space="preserve">
<metadata>
	<sfw  xmlns="&ns_sfw;">
		<slices></slices>
		<sliceSourceBounds  y="-766.434" x="12.143" width="975.715" height="553.992" bottomLeftOrigin="true"></sliceSourceBounds>
	</sfw>
</metadata>
<polygon fill="#6194D0" points="571.268,356.159 556.211,382.874 751.284,331.496 739.814,355.667 898.217,231.65 751.637,269.104 
	813.016,219.917 735.924,234.291 868.25,159.982 750.19,168.601 935.452,99.253 730.352,98.949 887.767,22.957 572.951,19.095 
	595.197,0 97.423,80.494 250.451,97.667 74.205,168.082 218.157,171.483 110.714,201.812 170.579,215.27 51.414,252.18 
	211.091,244.872 105.46,274.42 206.273,296.135 41.323,320.858 378.977,359.34 "/>
<polygon fill="#6194D0" points="82.435,373.292 367.464,366.219 517.192,379.025 504.486,403.902 918.352,388.119 814.788,421.556 
	866.141,425.043 790.78,450.549 837.925,462.699 735.869,484.521 803.999,505.768 716.345,515.668 805.452,553.992 531.332,518.744 
	79.83,486.041 252.816,464.96 97.167,452.732 199.094,433.694 31.495,397.724 192.104,406.604 "/>
<polygon fill="#6194D0" points="0,449.591 74.714,478.547 161.111,463.549 "/>
<polygon fill="#6194D0" points="616.037,387.54 727.729,346.558 714.003,380.353 "/>
<polygon fill="#6194D0" points="880.155,266.434 769.386,357.57 975.715,311.458 859.272,314.71 "/>
<polygon fill="#F6D545" points="193.4,182.405 153.955,201.721 91.361,186.575 "/>
<path fill="#F6D545" d="M149.51,154.466l104.5,18.42l19.646-14.534c0,0-92.846-7.633-94.012-7.709
	C178.478,150.568,149.51,154.466,149.51,154.466z"/>
<polygon fill="#F6D545" points="182.484,197.612 235.584,216.364 248.17,196.857 "/>
<polygon fill="#F6D545" points="214.121,116.99 152.171,135.792 88.24,132.647 "/>
<path fill="#F6D545" d="M277.058,227.627c-0.438-0.028-78.671,41.629-78.671,41.629l36.961-28.621l-59.441-5.435L277.058,227.627z"
	/>
<polygon fill="#F6D545" points="181.667,268.873 177.462,284.176 190.808,295.464 154.936,287.522 "/>
<polygon fill="#F6D545" points="125.188,342.255 205.862,350.417 609.369,343.813 621.797,328.732 "/>
<polygon fill="#F6D545" points="725.282,329.53 786.959,293.94 742.903,309.175 "/>
<polygon fill="#F6D545" points="752.982,252.745 737.92,288.734 721.262,281.213 "/>
<polygon fill="#F6D545" points="708.144,252.977 781.753,179.03 679.981,244.176 "/>
<polygon fill="#F6D545" points="735.924,234.291 770.883,240.161 753.189,267.739 791.134,229.059 "/>
<polygon fill="#F6D545" points="753.144,122.687 747.199,144.501 672.486,201.303 736.585,134.124 "/>
<polygon fill="#F6D545" points="738.433,78.079 708.691,119.826 691.582,112.475 "/>
<polygon fill="#F6D545" points="705.693,186.151 805.216,112.76 794.114,132.649 "/>
<polygon fill="#F6D545" points="814.142,120.875 826.871,106.327 902.148,85.151 822.252,122.131 "/>
<polygon fill="#F6D545" points="807.64,40.717 807.001,50.628 849.99,31.236 822.137,32.382 "/>
<polygon fill="#F6D545" points="594.91,49.796 584.348,122.819 604.658,42.585 "/>
<polygon fill="#F6D545" points="647.969,382.367 700.585,361.556 718.295,360.318 693.425,374.012 "/>
<polygon fill="#F6D545" points="867.854,287.52 834.208,333.825 794.306,348.271 822.83,330.258 "/>
<polygon fill="#F6D545" points="713.609,407.658 688.168,442.405 674.779,438.604 "/>
<polygon fill="#F6D545" points="701.363,430.154 774.319,422.647 852.555,397.857 766.212,411.443 "/>
<polygon fill="#F6D545" points="702.512,452.586 731.912,455.855 825.822,429.814 754.604,438.764 "/>
<polygon fill="#F6D545" points="700.34,441.806 691.342,459.086 675.366,455.86 "/>
<polygon fill="#F6D545" points="713.719,469.959 682.967,498.118 664.194,488.22 "/>
<polygon fill="#F6D545" points="669.165,509.343 692.903,509.664 748.549,539.11 698.813,525.135 "/>
<polygon fill="#F6D545" points="690.722,498.928 721.576,489.646 786.57,503.602 740.939,501.938 "/>
<polygon fill="#F6D545" points="398.818,495.963 535.438,509.245 655.136,547.093 527.461,517.268 "/>
<polygon fill="#F6D545" points="415.496,482.563 387.505,495.207 292.138,494.359 394.365,477.758 "/>
<polygon fill="#F6D545" points="275.931,464.2 275.992,475.111 248.187,473.445 "/>
<polygon fill="#F6D545" points="293.896,477.637 274.453,492.956 172.479,487.64 258.941,482.996 "/>
<path fill="#F6D545" d="M205.628,445.961c1.916,0.537,20.515-12.062,20.515-12.062l13.949,6.583L205.628,445.961z"/>
<polygon fill="#F6D545" points="196.826,413.971 183.119,422.806 117.801,409.265 "/>
<polygon fill="#F6D545" points="199.665,382.528 215.733,411.047 139.212,380.469 183.335,386.98 "/>
<polygon fill="#F6D545" points="367.491,377.543 443.717,362.585 525.52,366.894 453.686,375.711 431.117,378.275 "/>
<polyline fill="#F6D545" points="719.957,470.161 771.642,469.888 808.657,461.939 765.828,462.528 719.957,470.161 "/>
<polygon fill="#F6D545" points="339.12,50.416 264.507,61.029 220.148,80.511 291.561,68.662 "/>
<polyline fill="#F6D545" points="727.19,61.521 785.037,56.582 786.508,48.479 "/>
<polyline fill="#F6D545" points="672.557,524.55 664.763,500.78 655.725,511.176 672.557,524.55 "/>
<polyline fill="#F6D545" points="209.8,427.908 234.526,416.963 235.279,427.193 209.8,427.908 "/>
<polyline fill="#F6D545" points="871.395,245.75 823.636,261.873 771.951,323.35 844.979,266.365 871.395,245.75 "/>
<polyline fill="#F6D545" points="548.72,18.025 543.275,37.097 514.095,35.22 548.72,18.025 "/>
<polyline fill="#F6D545" points="505.547,385.495 387.463,394.37 450.781,401.293 505.547,385.495 "/>
<polygon fill="#4C6999" points="149.51,154.466 263.302,162.081 182.484,197.612 238.97,200.963 175.355,235.54 268.982,231.015 
	198.387,269.256 255.566,282.312 125.188,342.255 609.369,343.813 590.301,368.608 725.282,329.53 742.903,309.175 786.959,293.94 
	728.357,280.206 752.982,252.745 709.808,235.248 781.753,179.03 672.486,201.303 753.144,122.687 696.982,112.04 738.433,78.079 
	693.356,36.308 627.828,34.296 552.556,226.6 586.686,37.73 531.425,31.712 548.72,18.025 295.135,140.979 305.814,90.387 "/>
<polygon fill="#4C6999" points="814.142,120.875 807.799,138.576 902.148,85.151 "/>
<polygon fill="#4C6999" points="794.114,132.649 705.693,186.151 797.266,165.67 750.19,168.601 774.977,159.321 "/>
<polygon fill="#4C6999" points="813.608,27.499 807.64,40.717 849.99,31.236 "/>
<polygon fill="#4C6999" points="776.885,37.611 786.508,48.479 727.19,61.521 "/>
<polygon fill="#4C6999" points="735.924,234.291 810.406,221.02 753.189,267.739 783.805,233.666 "/>
<polygon fill="#4C6999" points="771.951,323.35 832.283,265.335 871.395,245.75 "/>
<polygon fill="#4C6999" points="794.306,348.271 867.854,287.52 825.492,332.474 "/>
<polygon fill="#4C6999" points="647.969,382.367 704.332,377.288 718.295,360.318 "/>
<polygon fill="#4C6999" points="725.758,408.621 701.363,430.154 852.555,397.857 "/>
<polygon fill="#4C6999" points="702.512,452.586 765.241,431.315 825.822,429.814 "/>
<polygon fill="#4C6999" points="719.957,470.161 768.801,459.617 808.657,461.939 "/>
<polygon fill="#4C6999" points="690.722,498.928 726.943,495.937 786.57,503.602 743.615,507.038 "/>
<polygon fill="#4C6999" points="669.165,509.343 748.549,539.11 691.037,529.461 "/>
<path fill="#4C6999" d="M398.818,495.963c0,0,257.479,51.261,256.318,51.13c-1.164-0.134-118.711-32.731-118.711-32.731
	L398.818,495.963z"/>
<polygon fill="#4C6999" points="272.481,472.039 275.931,464.2 248.187,473.445 "/>
<polygon fill="#4C6999" points="264.024,488.828 293.896,477.637 172.479,487.64 "/>
<polygon fill="#4C6999" points="182.3,417.779 196.826,413.971 117.801,409.265 "/>
<polygon fill="#4C6999" points="139.212,380.469 211.351,403.268 199.665,382.528 "/>
<polygon fill="#4C6999" points="209.8,427.908 227.272,424.601 218.969,381.379 451.157,395.406 505.547,385.495 495.013,411.34 
	713.609,407.658 682.707,437.277 700.34,441.806 685.749,453.164 714.556,469.438 681.516,486.855 682.967,498.118 658.89,510.68 
	672.557,524.55 413.008,484.322 292.138,494.359 320.603,468.671 205.628,445.961 233.718,441.931 "/>
<polygon fill="#4C6999" points="181.667,268.873 161.135,285.848 190.808,295.464 79.823,289.311 "/>
<polygon fill="#4C6999" points="622.443,36.331 584.348,122.819 604.658,42.585 "/>
<polygon fill="#4C6999" points="269.123,80.728 220.148,80.511 339.12,50.416 "/>
<polygon fill="#4C6999" points="431.347,382.793 367.491,377.543 525.52,366.894 "/>
<polygon fill="#4C6999" points="214.121,116.99 160.382,132.538 88.24,132.647 166.149,139.733 "/>
<polyline fill="#4C6999" points="91.361,186.575 193.4,182.405 152.366,194.661 91.361,186.575 "/>
<polyline fill="#F6D545" points="149.991,449.352 184.073,441.629 196.449,445.363 183.636,450.032 149.991,449.352 "/>
<polygon fill="#4C6999" points="149.991,449.352 196.449,445.363 183.231,452.277 "/>
<polyline fill="#F6D545" points="41.393,460.281 80.273,460.119 111.28,467.649 84.464,469.383 76.105,466.873 "/>
<polygon fill="#4C6999" points="41.393,460.281 111.28,467.649 76.935,470.774 "/>
<path fill="#F6D545" d="M437.007,410.756l10.907,1.159l-1.354,51.588c0,0-0.547,6.641,5.452,7.498
	c6.008,0.856,3.686-2.807,3.769-5.955c0.065-2.519-5.65-38.939-5.325-51.326l9.285-0.726l10.752,0.955l-1.371,52.08
	c0,0,1.808,16.752-23.849,14.715c0.019-0.71-12.205-15.682-12.085-20.23c0.097-3.682-5.671-38.154-5.376-49.405L437.007,410.756z"/>
<path fill="#F6D545" d="M496.26,441.522l3.678,1.16l9.15-1.792l0.191-7.296c0,0,4.946-17.904-25.426-17.249
	c-10.005-0.264-9.661,4.208-9.904,13.389c-0.24,9.183-1.005,38.213-1.005,38.213s-3.676,19.395,12.563,19.822
	c19.268,0.505,23.896-9.641,23.968-12.264c0.074-2.621,0.349-13.163,0.349-13.163l-10.237-1.759l-10.618,0.873l6.537,8.662
	c0,0,3.88,9.01-3.024,7.211c-6.344-1.661-5.081-7.995-5.034-9.744c0.047-1.748,0.935-35.593,0.935-35.593l2.145-5.497
	c3.149-0.822,5.917,4.533,5.879,6.013C496.362,434,496.26,441.522,496.26,441.522z"/>
<polygon fill="#F6D545" points="513.086,418.899 504.169,419.331 510.57,429.737 522.214,431.093 520.604,492.218 524.821,493.902 
	531.515,493.152 533.116,432.258 538.285,433.263 544.998,431.905 545.264,421.719 "/>
<polygon fill="#F6D545" points="553.173,422.861 543.351,423.508 548.105,496.702 552.325,498.472 561.839,496.841 563.414,423.665 
	"/>
<polygon fill="#F6D545" points="614.076,429.58 602.343,429.657 606.991,506.565 610.427,508.233 620.873,506.673 622.296,452.442 
	630.8,510.869 635.482,512.434 645.289,509.516 647.822,431.443 637.75,430.483 627.578,432.422 633.026,479.031 625.54,430.846 "/>
<path fill="#F6D545" d="M297.621,395.931c16.263,2.003,9.999,13.717,9.999,13.717s0,0-0.297,11.28
	c-0.298,11.28-16.215,10.664-16.215,10.664l-4.993-1.259l-0.52,19.719l-7.529,1.22l-4.313-1.689l-5.218-55.351l11.709-0.153
	C280.244,394.078,281.359,393.928,297.621,395.931z M286.204,403.555l-0.566,18.864c0,0,3.878,1.411,3.979-2.415
	c0.103-3.831,6.614,4.074,6.738-0.562c0.054-2.098,0.197-10.167,0.197-10.167s0.229-4.551-5.196-5.126
	C289.066,403.915,286.204,403.555,286.204,403.555z"/>
<path fill="#F6D545" d="M343.069,402.222c5.736,3.996,6.463,8.944,6.463,8.944s0.006,3.379-0.174,10.196
	c-0.179,6.821-7.767,8.218-7.677,8.223c7.706,3.089,6.676,13.126,6.676,13.126s0.046,8.842-0.054,12.598
	c-0.099,3.762,0.749,4.545,0.749,4.545s-6.315,1.273-9.709,1.867c0,0-4.402-1.788-4.4-1.87c-1.613-2.05-0.753-10.166-0.659-13.754
	c0.094-3.582,0.007-7.26-2.257-9.333c-2.262-2.07-6.841-2.467-6.841-2.467l-0.599,22.756l-8.59,0.642l-4.316-1.517l-5.149-57.973
	l10.921-1.202C317.451,397.003,337.335,398.218,343.069,402.222z M325.807,407.301l-0.379,17.93l4.273,1.323
	c0,0,4.943,0.101,5.07-4.688c0.056-2.101,0.189-7.219,0.189-7.219s-0.001-5.248-4.985-6.001
	C327.823,408.319,325.807,407.301,325.807,407.301z"/>
<path fill="#F6D545" d="M372.216,403.805c17.437,1.574,17.161,17.653,17.161,17.653s-0.748,28.337-0.864,32.709
	c-0.114,4.374-4.345,13.051-23.802,12.544c-16.132-3.407-13.019-16.394-13.019-16.394l0.897-34.1
	c0.108-4.077,0.578-10.165,4.806-12.511C357.395,403.707,366.596,403.302,372.216,403.805z M365.921,417.98l-0.828,34.101
	c0,0,0.015,5.224,5.335,6.045c4.638,0.714,3.74-2.399,3.816-5.198c0.072-2.799,1.034-34.097,1.034-34.097s2.417-5.452-3.382-6.014
	C367.25,412.363,365.974,416.006,365.921,417.98z"/>
<path fill="#F6D545" d="M416.139,407.646c15.095,1.952,14.354,17.238,14.354,17.238s-0.591,22.477-0.934,35.591
	c-0.387,14.645-25.6,12.134-25.6,12.134l-11.81-2.674l-5.013-63.136l10.868-0.947C398.004,405.852,401.821,405.784,416.139,407.646z
	 M407.011,417.236l-1.249,44.894l6.512,0.825c0,0,3.099,1.625,3.174-3.826c0.04-2.975,0.975-34.428,0.975-34.428
	s0.301-6.028-5.387-6.641C408.214,417.759,407.011,417.236,407.011,417.236z"/>
<path fill="#F6D545" d="M567.785,443.055c0,0-4.801-14.76,5.972-17.017c1.539-0.32,12.382,0.579,14.372,0.831
	c15.937,1.994,16.083,14.645,16.274,17.931c-0.084,3.278,0.001,45.108,0.001,45.108s-2.926,14.063-17.426,14.014
	c-1.609-0.007-7.801-0.204-8.312-0.221c0,0-10.129-14.958-11.95-20.114C565.703,480.722,567.785,443.055,567.785,443.055z
	 M578.977,443.964l-0.89,40.844c0,0-0.642,6.854,5.352,8.015c3.714,0.72,5.618-2.152,5.703-5.365
	c0.087-3.213,1.484-42.224,1.484-42.224s0.113-7.022-5.729-7.854C579.632,436.634,579.02,442.325,578.977,443.964z M566.717,483.587
	"/>
<path fill="#D14A43" d="M427.812,411.108l10.909,1.162l-1.345,51.151c0,0-0.546,6.639,5.459,7.497c6,0.855,6.193-2.901,6.273-6.047
	c0.081-3.147,1.347-51.152,1.347-51.152l10.263,0.966l-1.347,51.241c0,0,1.119,17.356-16.049,14.543
	c-17.169-2.817-16.925-15.583-16.805-20.13C426.638,455.795,427.812,411.108,427.812,411.108z"/>
<path fill="#D14A43" d="M489.588,441.348l10.35,1.335l0.214-8.144c0,0,0.281-17.76-16.298-18.193
	c-10.005-0.264-16.332,4.03-16.572,13.215c-0.243,9.182-1.003,38.213-1.003,38.213s-1.579,14.217,13.868,19.002
	c15.447,4.782,18.865-8.953,18.937-11.576c0.067-2.626,0.318-12.154,0.318-12.154l-10.433-1.588l-0.128,8.483
	c0,0,0.581,9.075-6.324,7.273c-6.342-1.657-5.158-8.012-5.11-9.76c0.051-1.75,0.94-35.595,0.94-35.595s-0.226-6.306,5.511-5.544
	c5.737,0.767,5.916,4.535,5.877,6.021S489.588,441.348,489.588,441.348z"/>
<polygon fill="#D14A43" points="504.169,419.331 503.899,429.563 515.541,430.92 513.935,492.042 524.821,493.902 526.451,432.079 
	538.285,433.263 538.558,422.861 "/>
<polygon fill="#D14A43" points="543.362,423.511 541.44,496.523 552.325,498.472 554.433,424.589 "/>
<polygon fill="#D14A43" points="602.343,429.657 600.324,506.39 610.427,508.233 611.891,452.488 624.125,510.693 635.482,512.434 
	637.558,433.604 627.578,432.422 626.357,478.857 616.198,431.465 "/>
<path fill="#D14A43" d="M285.544,395.99c16.263,2.001,15.387,14.231,15.387,14.231s0,0-0.298,11.279
	c-0.296,11.281-15.553,9.83-15.553,9.83l-6.464-0.961l-0.549,20.901l-10.983-1.866l1.452-55.174
	C268.535,394.231,269.283,393.987,285.544,395.99z M279.533,403.381l-0.565,18.861l5.819,0.804c0,0,4.774,0.858,4.896-3.779
	c0.056-2.1,0.198-10.165,0.198-10.165s0.23-4.551-5.194-5.124C282.396,403.738,279.533,403.381,279.533,403.381z"/>
<path fill="#D14A43" d="M333.931,403.212c5.733,4.003,5.379,10.381,5.379,10.381s0.042,2.019-0.139,8.835
	c-0.18,6.817-7.653,8.986-7.561,8.991c7.707,3.087,7.01,11.908,7.01,11.908s0.046,8.838-0.054,12.593
	c-0.097,3.764,0.776,5.801,0.776,5.801s-11.075-1.866-11.07-2.042c-1.615-2.055-0.752-10.173-0.659-13.751
	c0.093-3.589,0.006-7.268-2.257-9.338c-2.263-2.074-8.739-2.595-8.739-2.595l-0.623,23.699l-10.987-1.691l1.521-57.798
	C306.53,398.205,328.195,399.211,333.931,403.212z M317.408,407.589l-0.38,17.932l6.001,0.858c0,0,4.945,0.099,5.072-4.688
	c0.055-2.1,0.19-7.221,0.19-7.221s-0.002-5.247-4.987-5.999C321.152,408.147,317.408,407.589,317.408,407.589z"/>
<path fill="#D14A43" d="M363.163,403.703c17.437,1.577,16.473,16.98,16.473,16.98s-0.747,28.343-0.862,32.708
	c-0.113,4.372-2.185,16.133-18.32,12.735c-16.131-3.402-15.43-15.983-15.43-15.983l0.897-34.108
	C346.092,409.486,348.32,402.365,363.163,403.703z M356.964,417.359l-0.828,34.105c0,0,0.012,5.231,5.333,6.045
	c4.637,0.715,6.03-1.959,6.104-4.756c0.073-2.803,1.037-34.1,1.037-34.1s0.127-5.889-5.672-6.45
	C358.293,411.754,357.016,415.393,356.964,417.359z"/>
<path fill="#D14A43" d="M406.823,409.069c15.094,1.952,13.926,16.814,13.926,16.814s-0.589,22.475-0.936,35.592
	c-0.347,13.114-14.306,11.608-14.306,11.608l-20.029-3.324l1.657-62.961C387.136,406.799,392.502,407.213,406.823,409.069z
	 M397.987,417.197l-1.268,45.513l6.514,0.829c0,0,5.472,0.86,5.545-4.585c0.038-2.976,0.977-34.43,0.977-34.43
	s0.295-6.028-5.39-6.638C401.542,417.587,397.987,417.197,397.987,417.197z"/>
<path fill="#D14A43" d="M561.113,442.881c0,0,0.492-18.756,16.433-16.762c15.94,1.993,17.254,15.414,17.442,18.705
	c-0.084,3.277-1.165,44.335-1.165,44.335s-1.438,17.68-17.335,14.11c-15.896-3.566-16.522-16.843-16.441-19.864
	C560.126,480.393,561.113,442.881,561.113,442.881z M572.307,443.789l-0.889,40.84c0,0-0.646,6.855,5.352,8.02
	c3.713,0.72,5.619-2.152,5.704-5.363c0.084-3.218,1.479-42.229,1.479-42.229s0.117-7.018-5.727-7.847
	C572.965,436.456,572.353,442.149,572.307,443.789z"/>
<path fill="#9D4D46" d="M430.111,411.889l8.323,0.844l-2.086,50.872c0.547,2.923,2.442,7.667,7.984,8.457
	c0.524,0.075,0.503,0.047,0.972,0.061c5.855,0.153,6.695-4.399,6.766-6.969l1.317-50.024l6.949,0.086l-1.528,52.216
	c0.002,0.071,0.342,5.565-3.732,9.542c-1.974,1.923-4.1,3.117-7.549,3.028c-0.911-0.023-1.889-0.122-2.905-0.292
	c-16.314-2.672-15.661-13.486-15.543-17.973L430.111,411.889 M428.263,411.675c0,0-1.139,44.132-1.259,48.679
	c-0.119,4.544-1.729,16.379,16.654,19.633c1.097,0.178,2.329,0.234,3.283,0.257c13.962,0.369,11.803-14.284,11.803-14.284
	l1.593-50.744l-9.081-1.029c0,0-0.928,47.568-1.013,50.716c-0.074,2.889-0.144,6.876-4.811,6.75
	c-0.419-0.01-1.942-0.143-2.433-0.213c-6.004-0.854-5.896-7.55-5.896-7.55l1.33-51.288l-9.568-1.036L428.263,411.675z"/>
<path fill="#9D4D46" d="M484.551,417.029c15.273,0.403,15.402,16.831,15.393,17.502l-0.185,6.978l-7.29-0.731
	c0.03-2.063,0.098-6.921,0.13-8.067c0.105-3.972-2.861-6.595-7.373-7.196c-0.306-0.038-0.599-0.061-0.887-0.072
	c-1.611-0.041-3.278,0.514-4.292,1.477c-1.939,1.845-2.224,4.756-2.216,5.141l-0.749,36.291c-0.001,0.162-0.023,0.367-0.036,0.613
	c-0.167,2.317,0.387,7.337,6.079,9.284c0.638,0.169,1.251,0.259,1.824,0.273c1.497,0.041,3.605-0.497,4.594-1.458
	c2.344-2.284,2.181-6.672,2.155-7.184l0.112-7.234l7.358,1.313l-0.513,11.568c-0.053,1.949-2.225,11.843-12.033,11.582
	c-1.625-0.042-3.393-0.338-5.28-0.923c-14.379-4.456-12.589-17.44-12.589-17.44l1.016-38.72
	C470.042,419.62,477.669,416.848,484.551,417.029 M484.412,416.699c-10.003-0.262-15.982,3.702-16.224,12.885
	c-0.248,9.182-1.01,38.211-1.01,38.211s-1.576,14.223,13.87,19.006c2.083,0.643,2.837,0.482,4.502,0.524
	c10.697,0.283,12.437-10.091,13.105-11.799c0.07-2.626,0.318-12.045,0.318-12.045l-9.529-1.393l0.294,7.877
	c0,0,0.69,8.122-4.562,7.982c-0.474-0.008-1.623,0.089-2.192-0.052c-6.339-1.658-5.951-7.797-5.903-9.547
	c0.049-1.752,1.032-37.325,1.032-37.325s0.421-5.404,5.374-5.268c0.246,0.003,0.498,0.021,0.764,0.061
	c5.735,0.761,6.424,5.057,6.387,6.543c-0.039,1.489-0.146,9.012-0.146,9.012l9.038,0.926l0.213-8.145
	c0,0-0.451-17.061-14.964-17.444L484.412,416.699z"/>
<path fill="#9D4D46" d="M538.325,423.822l-0.219,8.305l-10.637-1.069l-1.195-0.116l-0.031,1.132l-1.596,60.601l-7.931-0.705
	l1.808-61.309l-2.092-0.385l-10.21-1.06l0.104-9.119L538.325,423.822z M504.486,419.849l0.315,9.732l11.645,1.36l-1.608,61.127
	l9.568,1.087l1.848-61.509l11.84,0.97l-0.227-9.541l-32.505-3.27L504.486,419.849z"/>
<path fill="#9D4D46" d="M545.48,424.212l8.717,1.35l-2.043,71.677l-7.654-0.878L545.48,424.212 M543.828,424.234l-2.055,72.006
	l10.287,2.028l2.225-73.231l-10.24-1.148L543.828,424.234z"/>
<path fill="#9D4D46" d="M604.834,430.235l11.196,1.782l10.14,47.068c0,0-0.073,1.65,0.831,1.676
	c1.809,0.048,2.412-1.822,2.412-1.822l1.099-45.284l6.813,0.893l-2.019,76.679l-8.465-1.479l-12.528-57.289
	c0,0-0.234-1.018-2.044-1.069c-0.525-0.014-0.119,1.134-0.119,1.134l0.415,1.248l11.957,56.499l10.702,1.422l2.044-77.583
	l-8.808-1.018l-1.625,45.238l-0.613,1.457l-10.192-47.769l-12.164-2.068l-1.044-0.029l-2.008,76.274l8.793,1.377l0.411,0.407
	l-7.439-1.463L604.834,430.235"/>
<path fill="#9D4D46" d="M299.754,421.46c-0.219,8.312-8.714,9.618-12.673,9.509c-0.488-0.009-0.807-0.035-0.903-0.038l-6.16-0.971
	l-2.02,0.087l0.408,0.318l-0.531,20.113l-8.369-1.568l1.559-54.002c1.233,0.082,3.356,0.287,9.293,0.952l0.146-0.32
	c-7.422-0.868-9.911-1.065-10.702-1.086l0,0c-0.324-0.01-0.371,0.008-0.371,0.008l-1.445,54.968l9.493,1.612l0.509-20.684
	l7.843,0.535c0,0,0.614,0.06,1.249,0.075c3.41,0.093,12.706,0.008,12.956-9.497L299.754,421.46z M287.32,423.729
	c2.52,0.061,5.112-0.584,5.21-4.274c0.054-2.071,0.195-10.091,0.197-10.137c0.095-1.914-1.009-5.349-6.127-5.885
	c-2.25-0.236-6.773-0.691-6.773-0.691l-0.038,0.613l0.646,0.055c2.339,0.287,2.293,0.289,5.154,0.59
	c5.425,0.57,5.195,5.126,5.195,5.126s-0.143,8.065-0.199,10.169c-0.093,3.521-2.876,3.869-4.205,3.836l0,0
	c-0.417-0.011-0.691-0.064-0.691-0.064l-6.397-0.449l0,0l0.981,0.132l5.344,0.76c0.038,0.009,0.376,0.067,0.869,0.083"/>
<path fill="#9D4D46" d="M308.817,398.988c4.491,0.271,20.685,1.828,25.357,5.094c5.162,3.596,4.941,9.241,4.93,9.474l-0.002,0.034
	l0,0.044c0.001,0.019,0.037,2.092-0.138,8.787c-0.14,5.252-5.212,7.459-6.764,8.007c-0.891,0.313-0.808,1.04-0.782,1.185
	l0.102,0.567l0.562,0.225c6.86,2.755,6.359,10.535,6.333,10.867l-0.001,0.035l-0.001,0.049c0.001,0.085,0.044,8.863-0.053,12.565
	c-0.05,1.933,0.148,3.448,0.364,4.498c-3.834-0.654-6.86-1.233-8.021-1.498c-0.867-1.723-0.566-7.243-0.399-10.285
	c0.053-0.971,0.101-1.853,0.119-2.56c0.1-3.822-0.017-7.757-2.596-10.112c-2.477-2.271-9.511-2.631-10.213-2.687l-0.758-0.011
	l-0.445,0.794l-0.593,23.304l-8.456-1.812l1.455-56.632 M323.95,427.181c2.091,0.037,6.964-0.869,7.084-5.481l0.19-7.237
	c0-2.128-2.115-5.923-6.801-6.632c-2.154-0.323-7.176-0.461-7.176-0.461l0,0l-0.623,18.683l7.254,1.128 M307.425,398.567
	l-1.513,57.462l9.906,1.335l0.606-23.699c0,0,7.574,0.875,9.835,2.949c2.266,2.072,2.353,5.748,2.258,9.334
	c-0.094,3.585-0.955,11.701,0.659,13.753c-0.003,0.176,9.856,1.375,9.856,1.375s-0.772-1.399-0.673-5.155
	c0.1-3.761,0.053-12.565,0.053-12.565s0.28-8.869-7.424-11.961c-0.092-0.003,7.795-2.154,7.976-8.974
	c0.178-6.819,0.139-8.831,0.139-8.831s0.806-5.505-4.928-9.508c-5.734-4.002-26.74-5.854-26.74-5.854L307.425,398.567z
	 M323.935,426.4l-6.967-0.36l0.279-18.671c0,0,4.809,0.799,6.96,1.125c4.986,0.756,4.986,6.008,4.986,6.008s-0.134,5.113-0.19,7.211
	C328.879,426.502,323.935,426.4,323.935,426.4L323.935,426.4z"/>
<path fill="#9D4D46" d="M364.047,404.475c16.131,1.455,15.115,15.753,15.08,16.372l-0.561,32.543
	c-0.077,2.962-1.199,12.606-12.369,12.307c-1.416-0.033-3.041,0.003-4.677-0.345c-14.975-3.157-14.134-13.822-14.109-14.321
	l0.883-34.518c0.153-5.84,1.636-12.495,13.302-12.188C361.595,404.324,363.189,404.399,364.047,404.475z M360.93,403.873
	c-12.549-0.332-13.945,6.027-14.106,12.19l-0.897,34.105c0,0-0.701,12.582,15.431,15.981c1.767,0.371,3.022,0.018,4.469,0.057
	c11.748,0.312,12.249-9.982,12.352-13.877c0.116-4.373,1.153-31.441,1.153-31.441s-0.048-15.388-15.713-16.812
	c-0.896-0.083-1.461-0.077-2.268-0.103L360.93,403.873z M363.565,458.698c3.671,0.102,6.691-2.146,6.79-5.931
	c0.074-2.77,1.027-33.78,1.037-34.104c0.053-2.372-2.042-6.96-7.439-7.481c-0.223-0.02-0.612,0.124-0.823,0.118l-0.35,0.657
	c0.187,0.004,0.866,0.25,1.064,0.27c5.799,0.559,5.669,6.448,5.669,6.448s-0.961,31.298-1.036,34.102
	c-0.068,2.534-0.621,5.309-4.289,5.21l-0.611,0.204c-0.377-0.015-0.956-0.06-1.39-0.129l0.01,0.51
	C362.671,458.651,363.132,458.689,363.565,458.698"/>
<path fill="#9D4D46" d="M390.568,407.845c2.263,0.214,6.53,0.927,17.01,2.286c13.856,1.796,13.008,15.132,12.964,15.746
	l-0.938,35.594c-0.26,9.885-8.651,11.182-12.274,11.088c-0.372-0.012-0.658-0.019-0.739-0.022l-18.651-2.493l2.167-62.533
	 M387.61,407.333l-1.226,62.452l19.65,2.739c0,0,0.393,0.006,0.915,0.022c3.003,0.08,11.945,0.092,12.238-11.091
	c0.346-13.111,0.932-35.377,0.932-35.377s2.427-14.301-12.667-16.255c-14.319-1.854-19.403-2.612-19.403-2.612L387.61,407.333z
	 M404.881,464.418c1.021,0.027,3.62,0.46,5.055-0.841c1.092-0.991,1.658-2.414,1.684-4.238c0.04-2.931,0.967-34.103,0.976-34.394
	c0.118-2.427-1.85-7.193-7.167-7.768l-0.158,0.733c5.686,0.611,5.389,6.64,5.389,6.64s-0.937,31.452-0.977,34.427
	c-0.059,4.309-3.653,4.966-5.089,4.93l-0.648,0.026c-0.381-0.012-0.51-0.057-0.51-0.057l0.675,0.476
	C404.143,464.359,404.438,464.406,404.881,464.418"/>
<path fill="#9D4D46" d="M576.113,427.094l-0.26-0.063c0.561,0.016,1.86,0.078,2.454,0.152c14.002,1.751,16.188,12.911,16.474,17.675
	l-1.163,44.264c-0.075,0.864-1.408,14.221-12.595,13.926c-1.065-0.024-1.941-0.111-3.125-0.374
	c-15.216-3.417-15.201-15.875-15.139-18.422l1.108-40.947c0.017-0.661-0.883-16.61,11.985-16.273 M576.097,426.498
	c-14.122-0.375-14.081,16.408-14.081,16.408s-0.985,37.514-1.064,40.527c-0.08,3.018-0.353,16.074,15.547,19.64
	c1.295,0.296,2.631,0.186,3.746,0.215c12.509,0.333,13.503-13.818,13.503-13.818s0.438-40.296,0.521-43.581
	c-0.19-3.286-0.381-17.253-16.318-19.247c-0.641-0.081-0.727-0.021-1.317-0.035L576.097,426.498z M578.365,437.166
	c0.245,0.009,0.501,0.024,0.762,0.065c5.849,0.831,5.729,7.851,5.729,7.851s-1.396,39.016-1.481,42.227
	c-0.078,2.916-1.652,5.553-4.729,5.473l0,0c-0.309-0.006-0.637-0.043-0.97-0.108l-0.023,0.733c0.395,0.076,0.791,0.122,1.17,0.133
	c3.35,0.089,6.877-2.052,6.979-5.96c0.084-3.175,1.469-41.83,1.481-42.239c0.106-4.098-2.606-8.382-7.992-9.145
	c-0.304-0.046-0.607-0.072-0.896-0.081L578.365,437.166z"/>
<path fill="#3B5542" d="M428.75,411.688l9.79,1.313l-1.421,50.536c-0.207,2.643,1.025,7.718,6.564,8.508
	c0.529,0.074,0.503,0.048,0.973,0.06c5.855,0.154,5.981-4.627,6.054-7.189l1.313-50.029l8.046,0.761l-1.324,50.271l-0.001,0.043
	l0.004,0.042c0.006,0.069,0.402,6.995-3.672,10.972c-1.974,1.923-4.743,3.098-8.192,3.01c-0.916-0.026-1.895-0.12-2.91-0.286
	c-16.313-2.673-16.373-13.672-16.256-18.157L428.75,411.688 M428.016,411.541c0,0-0.892,44.266-1.012,48.813
	c-0.119,4.544-0.626,16.945,16.542,19.764c1.098,0.181,1.961,0.27,2.91,0.288c13.962,0.374,12.289-14.489,12.289-14.489
	l1.708-50.632l-9.526-0.905c0,0-1.249,47.356-1.327,50.504c-0.079,2.888-0.57,6.799-5.235,6.678
	c-0.418-0.011-0.874-0.052-1.364-0.122c-6.004-0.854-5.881-7.902-5.881-7.902l1.57-50.75l-10.392-1.664L428.016,411.541z"/>
<path fill="#3B5542" d="M484.134,417.021c15.271,0.403,15.4,16.83,15.394,17.499l-0.184,6.979l-8.143-1.053
	c0.033-2.062,0.103-6.919,0.131-8.067c0.104-3.97-2.011-6.276-6.522-6.875c-0.301-0.042-0.602-0.064-0.884-0.076
	c-1.612-0.04-2.713,0.233-3.727,1.2c-1.94,1.845-2.158,4.747-2.152,5.125l-0.782,35.921c-0.007,0.167-0.019,0.375-0.04,0.616
	c-0.167,2.314-0.21,7.997,5.486,9.947c0.634,0.166,1.246,0.26,1.82,0.276c1.501,0.034,2.76-0.431,3.745-1.393
	c2.344-2.284,2.186-6.672,2.158-7.183l0.114-7.242l8.209,1.252l-0.301,11.232c-0.05,1.954-2.376,11.816-12.183,11.557
	c-1.63-0.042-3.46,0.019-5.349-0.565c-14.382-4.451-13.551-17.66-13.49-18.202l-0.014,0.48l-0.001-0.04l1.018-38.681
	C468.711,419.324,477.246,416.839,484.134,417.021 M484.111,416.689c-10.006-0.26-16.104,3.701-16.344,12.886
	c-0.241,9.181-1.006,38.208-1.006,38.208s-1.576,14.223,13.871,19.006c2.083,0.645,3.929,0.467,5.595,0.517
	c10.697,0.278,12.169-9.851,12.229-12.125c0.072-2.622,0.267-11.863,0.267-11.863l-9.278-1.229l-0.12,7.864
	c0,0,0.492,7.647-4.769,7.51c-0.47-0.015-1.139,0.538-1.71,0.39c-6.342-1.658-5.624-8.625-5.581-10.373
	c0.046-1.749,0.781-35.727,0.781-35.727s0.395-6.112,5.349-5.981c0.242,0.009,0.681,0.524,0.946,0.562
	c5.738,0.766,5.915,4.531,5.879,6.015c-0.039,1.493-0.145,9.012-0.145,9.012l9.669,0.81l-0.225-7.309
	c0,0,0.282-17.841-16.298-18.281L484.111,416.689z"/>
<path fill="#3B5542" d="M505.4,420.073l32.51,3.736l-0.093,8.862l-10.678-1.069l-1.302,0.054l-0.01,0.406l-1.6,60.602l-9.098-1.194
	l1.862-60.132l0.025-0.951l-1.005-0.116l-10.984-1.414L505.4,420.073 M504.155,419.839l0.083,9.409l11.896,1.366l-1.714,61.44
	l9.936,1.293l1.76-61.557l11.606,1.137l0.251-9.56l-33.317-4.026L504.155,419.839z"/>
<path fill="#3B5542" d="M544.506,424.189l9.273,1.361l-2.043,71.673l-9.121-1.292L544.506,424.189 M543.68,423.883l-1.751,72.652
	l9.983,1.39l1.865-72.634l-9.932-1.765L543.68,423.883z"/>
<path fill="#3B5542" d="M603.376,430.197l12.752,1.885l9.624,46.995l0.765,1.672c1.439,0.037,1.435-1.853,1.435-1.853l1.192-45.275
	l7.764,0.922l-2.02,76.675l-9.335-1.431l-12.522-57.283c0,0-0.229-1.101-0.761-1.115c-0.525-0.014-0.538,1.124-0.538,1.124
	l-1.492,54.913l-8.809-1.59L603.376,430.197 M602.547,429.912l-2.001,76.116l9.629,2.08l1.694-56.375l12.746,58.97l10.257,1.574
	l2.258-78.169l-9.087-1.029l-1.576,46.912l-10.446-48.215l-13.192-2.104L602.547,429.912z M626.517,480.749
	c1.439,0.037,1.435-1.853,1.435-1.853"/>
<path fill="#3B5542" d="M269.676,394.87c1.607,0.11,6.384,0.471,16.503,1.716c14.98,1.847,14.157,13.116,14.125,13.617
	l-0.297,11.285c-0.218,8.309-9.447,8.958-13.407,8.858c-0.488-0.014-0.808-0.043-0.901-0.044l-6.446-0.431l-1.25-0.185l-0.015,0.671
	l-0.528,20.108l-9.344-1.594L269.676,394.87z M286.07,423.576c2.522,0.068,5.114-0.584,5.211-4.267
	c0.054-2.08,0.196-10.092,0.197-10.143c0.096-1.916-1.012-5.348-6.125-5.881c-2.253-0.238-5.943-0.558-5.943-0.558l-0.038,0.616
	l-0.468,18.322l-0.028,0.935l0.982,0.137l5.344,0.76C285.24,423.508,285.578,423.568,286.07,423.576 M269.611,394.698
	c-0.325-0.01-0.369,0.005-0.369,0.005l-1.673,54.714l9.947,1.313l0.481-20.684l7.505,0.768c0,0,1.177,0.15,1.812,0.162
	c3.343-0.505,12.444,0.019,12.693-9.488c0.297-11.285,0.297-11.285,0.297-11.285s1.657-11.675-14.606-13.679
	C273.504,395.023,270.583,394.723,269.611,394.698L269.611,394.698z M286.163,423.348c-0.418-0.008-0.692-0.06-0.692-0.06
	l-6.593-0.687l0.509-19.471c0,0,3.585,0.309,5.876,0.552c5.424,0.572,5.106,5.43,5.106,5.43s-0.143,8.073-0.199,10.167
	C290.078,422.806,287.491,423.385,286.163,423.348L286.163,423.348z"/>
<path fill="#3B5542" d="M307.602,398.887c4.491,0.273,21.484,1.92,26.158,5.184c5.158,3.596,4.94,9.24,4.927,9.478l-0.002,0.034
	l0,0.042c0,0.016,0.039,2.087-0.139,8.786c-0.138,5.251-5.21,7.457-6.763,8.005c-0.892,0.314-0.808,1.041-0.782,1.188l0.103,0.571
	l0.562,0.219c6.861,2.754,6.358,10.54,6.334,10.863l-0.005,0.044l0.001,0.038c0,0.09,0.044,8.868-0.051,12.569
	c-0.052,1.935,0.146,3.451,0.364,4.501c-3.834-0.653-7.657-1.338-8.817-1.595c-0.864-1.73-0.563-7.245-0.399-10.285
	c0.054-0.976,0.104-1.857,0.121-2.563c0.102-3.824-0.016-7.754-2.595-10.113c-2.476-2.273-8.717-2.528-9.421-2.586l-0.756-0.014
	l-0.028,0.809l-0.641,22.994l-9.621-1.602L307.602,398.887 M323.533,427.169c2.093,0.039,6.044-0.822,6.165-5.438l0.191-7.243
	c-0.001-2.125-1.24-5.622-5.926-6.33c-2.153-0.327-6.716-0.789-6.716-0.789l-0.012,0.498l-0.267,18.173l6.494,1.122
	 M307.006,398.609l-1.51,57.41l10.223,1.316l0.709-23.781c0,0,7.152,0.974,9.414,3.046c2.265,2.075,2.353,5.749,2.258,9.338
	c-0.093,3.58-0.955,11.701,0.659,13.754c-0.004,0.172,9.706,1.521,9.706,1.521s-0.621-1.544-0.521-5.306
	c0.097-3.758,0.051-12.569,0.051-12.569s0.697-8.852-7.007-11.943c-0.092-0.003,7.379-2.162,7.558-8.984
	c0.181-6.821,0.141-8.862,0.141-8.862s0.95-5.721-4.784-9.721C328.168,399.821,307.006,398.609,307.006,398.609L307.006,398.609z
	 M323.517,426.39l-6.773-0.627l0.398-18.628c0,0,4.499,1.024,6.65,1.347c4.985,0.757,4.987,6.008,4.987,6.008
	s-0.136,5.113-0.191,7.211C328.462,426.488,323.517,426.39,323.517,426.39L323.517,426.39z"/>
<path fill="#3B5542" d="M363.63,404.465c16.13,1.459,15.417,15.586,15.378,16.207l-0.859,32.705
	c-0.079,2.965-1.199,12.609-12.37,12.309c-1.414-0.033-3.04,0-4.676-0.344c-14.975-3.154-14.95-14.256-14.926-14.758l0.88-34.516
	c0.153-5.841,2.455-12.061,14.123-11.759C361.18,404.31,362.773,404.387,363.63,404.465z M363.147,458.688 M360.826,403.915
	c-12.551-0.329-14.258,5.976-14.42,12.138l-0.896,34.102c0,0-0.728,12.227,15.405,15.626c1.766,0.371,3.362,0.395,4.809,0.436
	c11.749,0.311,12.324-8.943,12.426-12.839c0.115-4.373,1.054-32.658,1.054-32.658s1.852-15.072-15.585-16.642
	c-0.896-0.083-1.569-0.085-2.377-0.102L360.826,403.915z M363.147,458.688c3.674,0.097,5.925-2.108,6.025-5.897
	c0.072-2.761,1.026-33.774,1.037-34.102c0.05-2.37-1.277-6.997-6.673-7.52c-0.225-0.018-0.444-0.033-0.654-0.038l-0.028,1.053
	c0.187,0,0.376,0.014,0.572,0.033c5.8,0.562,5.672,6.445,5.672,6.445s-0.964,31.302-1.037,34.102c-0.068,2.539-1.325,5.3-4.994,5.2
	l-1.332,0.019"/>
<path fill="#3B5542" d="M388.301,407.607c2.263,0.213,8.379,1.156,18.861,2.513c13.854,1.796,13.008,15.131,12.962,15.745
	l-0.937,35.591c-0.26,9.89-8.234,11.196-11.857,11.103c-0.372-0.012-1.168-0.024-1.249-0.036l-19.465-2.699L388.301,407.607
	 M387.61,407.333l-1.634,62.08l19.825,3.106c0,0,0.623,0.01,1.143,0.027c3.005,0.079,12.232,0.179,12.524-11.002
	c0.344-13.118,0.65-35.466,0.65-35.466s2.137-14.44-12.957-16.396c-14.319-1.856-19.774-2.484-19.774-2.484L387.61,407.333z
	 M404.465,464.404c1.018,0.029,2.793,0.116,4.229-1.178c1.091-0.995,1.656-2.418,1.683-4.244c0.039-2.93,0.964-34.096,0.975-34.393
	c0.12-2.426-1.021-6.848-6.34-7.42l-0.158,0.732c5.685,0.604,5.387,6.639,5.387,6.639s-0.937,31.451-0.976,34.425
	c-0.058,4.305-3.487,4.668-4.921,4.629l0,0c-0.384-0.011-0.622-0.048-0.622-0.048l-0.029,0.798
	C403.724,464.353,404.019,464.394,404.465,464.404"/>
<path fill="#3B5542" d="M575.436,427.016L575.436,427.016c0.561,0.019,1.861,0.083,2.454,0.158
	c14.001,1.75,16.188,12.908,16.475,17.672l-1.166,44.265c-0.073,0.863-1.404,14.219-12.593,13.927
	c-1.065-0.029-2.2-0.174-3.383-0.44c-15.217-3.417-16.101-16.194-16.029-18.737l1.104-40.948
	C562.312,442.247,562.572,426.679,575.436,427.016 M576.097,426.498c-14.122-0.375-14.496,16.396-14.496,16.396
	s-0.991,37.515-1.067,40.528c-0.079,3.019,0.065,16.086,15.965,19.651c1.295,0.296,2.631,0.186,3.746,0.215
	c12.509,0.333,12.954-14.178,12.954-14.178s1.496-40.973,1.583-44.253c-0.19-3.281-1.357-16.061-17.299-18.049
	C576.84,426.725,576.691,426.512,576.097,426.498L576.097,426.498z M577.237,493.392c0.392,0.086,0.789,0.127,1.168,0.137
	c3.35,0.087,5.562-2.292,5.664-6.204c0.086-3.174,1.468-41.83,1.485-42.236c0.043-2.747-1.295-8.141-6.676-8.905
	c-0.31-0.041-0.608-0.069-0.898-0.074l-0.029,1.048c0.241,0.005,0.497,0.028,0.765,0.065c5.841,0.827,5.723,7.848,5.723,7.848
	s-1.394,39.014-1.477,42.227c-0.079,2.916-1.66,5.554-4.729,5.471l0,0c-0.313-0.003-0.637-0.043-0.979-0.111L577.237,493.392z"/>
<path fill="#56A361" d="M428.263,411.675l9.794,1.307l-1.424,50.542c-0.208,2.642,1.024,7.722,6.565,8.51
	c0.524,0.076,0.505,0.045,0.973,0.057c5.856,0.153,5.983-4.624,6.049-7.188l1.318-50.027l8.043,0.757l-1.322,50.268l-0.003,0.043
	l0.006,0.047c0.005,0.067,0.397,6.996-3.673,10.971c-1.974,1.925-4.743,3.103-8.196,3.012c-0.912-0.025-1.892-0.123-2.907-0.288
	c-16.31-2.674-16.371-13.676-16.256-18.156L428.263,411.675 M427.812,411.108c0,0-1.174,44.687-1.294,49.231
	c-0.12,4.547-0.364,17.313,16.805,20.13c1.096,0.181,2.118,0.274,3.071,0.297c13.958,0.374,12.978-14.84,12.978-14.84l1.347-51.241
	l-10.263-0.966c0,0-1.266,48.005-1.347,51.152c-0.074,2.89-0.242,6.292-4.911,6.168c-0.416-0.013-0.873-0.051-1.362-0.121
	c-6.005-0.858-5.459-7.497-5.459-7.497l1.345-51.151L427.812,411.108L427.812,411.108z"/>
<path fill="#56A361" d="M483.65,417.006c15.268,0.402,15.398,16.828,15.388,17.502l-0.181,6.973l-8.141-1.044
	c0.028-2.062,0.1-6.918,0.129-8.071c0.107-3.967-2.009-6.277-6.522-6.872c-0.303-0.045-0.6-0.067-0.89-0.073
	c-1.604-0.047-2.705,0.231-3.725,1.193c-1.937,1.851-2.155,4.745-2.147,5.131l-0.787,35.914c-0.002,0.164-0.021,0.373-0.033,0.623
	c-0.173,2.313-0.213,7.997,5.483,9.942c0.633,0.167,1.248,0.263,1.817,0.276c1.502,0.037,2.761-0.427,3.749-1.392
	c2.342-2.285,2.188-6.672,2.159-7.184l0.112-7.239l8.204,1.249l-0.297,11.238c-0.046,1.946-2.378,11.809-12.183,11.553
	c-1.63-0.047-3.46,0.019-5.349-0.566c-14.378-4.45-13.55-17.661-13.487-18.208l-0.017,0.484l-0.003-0.041l1.016-38.674
	C468.224,419.311,476.761,416.823,483.65,417.006 M483.854,416.346c-10.005-0.264-16.332,4.03-16.572,13.215
	c-0.243,9.182-1.003,38.213-1.003,38.213s-1.579,14.217,13.868,19.002c2.08,0.646,3.948,0.957,5.613,0.998
	c10.696,0.283,13.265-10.309,13.323-12.574c0.067-2.626,0.318-12.154,0.318-12.154l-10.433-1.588l-0.128,8.483
	c0,0,0.492,7.647-4.77,7.509c-0.469-0.013-0.987-0.085-1.555-0.235c-6.342-1.657-5.158-8.012-5.11-9.76
	c0.051-1.75,0.94-35.595,0.94-35.595s-0.207-5.734,4.747-5.602c0.242,0.007,0.497,0.028,0.764,0.058
	c5.737,0.767,5.916,4.535,5.877,6.021s-0.146,9.011-0.146,9.011l10.35,1.335l0.214-8.144
	C500.151,434.539,500.433,416.779,483.854,416.346L483.854,416.346z"/>
<path fill="#56A361" d="M504.913,420.062l32.511,3.737l-0.218,8.307l-10.639-1.068l-1.194-0.123l-0.032,1.137l-1.597,60.603
	l-9.099-1.197l1.861-60.135l0.024-0.951l-1.006-0.118l-10.983-1.41L504.913,420.062 M504.169,419.331l-0.27,10.231l11.642,1.357
	l-1.606,61.122l10.887,1.86l1.63-61.823l11.834,1.184l0.272-10.401L504.169,419.331L504.169,419.331z"/>
<path fill="#56A361" d="M544.017,424.174l9.277,1.361l-2.04,71.678l-9.126-1.29L544.017,424.174 M543.362,423.511l-1.922,73.013
	l10.885,1.948l2.107-73.883L543.362,423.511L543.362,423.511z"/>
<path fill="#56A361" d="M602.887,430.187l12.754,1.884l9.627,46.992c0,0,0.346,1.663,1.249,1.687
	c0.902,0.026,0.949-1.867,0.949-1.867l1.193-45.272l7.764,0.919l-2.021,76.676l-9.336-1.432l-12.523-57.282
	c0,0-0.231-1.098-0.76-1.11c-0.53-0.017-0.536,1.122-0.536,1.122l-1.494,54.91l-8.81-1.59L602.887,430.187 M602.343,429.657
	l-2.019,76.732l10.103,1.844l1.464-55.745l12.234,58.205l11.357,1.74l2.075-78.829l-9.979-1.183l-1.221,46.436l-10.159-47.393
	L602.343,429.657L602.343,429.657z"/>
<path fill="#56A361" d="M269.191,394.857c1.607,0.109,6.382,0.473,16.5,1.719c14.983,1.841,14.16,13.117,14.127,13.619
	l-0.297,11.276c-0.217,8.309-9.446,8.968-13.406,8.861c-0.486-0.011-0.809-0.035-0.902-0.048l-6.43-0.95l-1.25-0.187l-0.03,1.193
	l-0.529,20.111l-9.343-1.589L269.191,394.857z M285.585,423.567c2.52,0.063,5.112-0.589,5.21-4.272
	c0.055-2.081,0.197-10.094,0.195-10.14c0.099-1.921-1.008-5.347-6.124-5.884c-2.252-0.24-5.942-0.554-5.942-0.554l-0.038,0.614
	l-0.468,18.324l-0.027,0.934l0.981,0.14l5.343,0.755C284.753,423.494,285.091,423.552,285.585,423.567 M268.905,394.225
	c-0.325-0.009-0.37,0.007-0.37,0.007l-1.452,55.174l10.983,1.866l0.549-20.901l6.464,0.961c0,0,0.375,0.031,1.009,0.055
	c3.409,0.085,14.295-0.375,14.544-9.885c0.298-11.279,0.298-11.279,0.298-11.279s0.876-12.23-15.387-14.231
	C273.347,394.485,269.879,394.248,268.905,394.225L268.905,394.225z M285.48,423.106c-0.419-0.011-0.693-0.061-0.693-0.061
	l-5.819-0.804l0.565-18.861c0,0,2.862,0.357,5.154,0.597c5.424,0.573,5.194,5.124,5.194,5.124s-0.142,8.065-0.198,10.165
	C289.59,422.79,286.806,423.14,285.48,423.106L285.48,423.106z"/>
<path fill="#56A361" d="M307.115,398.881c4.492,0.267,21.484,1.91,26.158,5.178c5.159,3.597,4.938,9.243,4.928,9.477l-0.002,0.035
	v0.042c0.001,0.014,0.038,2.088-0.139,8.784c-0.137,5.248-5.211,7.455-6.764,8.002c-0.892,0.322-0.807,1.048-0.781,1.19l0.104,0.569
	l0.561,0.221c6.86,2.759,6.36,10.539,6.332,10.864l-0.001,0.043l0,0.041c0,0.09,0.045,8.869-0.054,12.565
	c-0.05,1.94,0.148,3.452,0.366,4.506c-3.834-0.657-7.658-1.339-8.815-1.602c-0.868-1.729-0.566-7.242-0.4-10.278
	c0.052-0.976,0.099-1.859,0.119-2.567c0.1-3.821-0.016-7.754-2.597-10.113c-2.476-2.271-8.717-2.525-9.419-2.584l-0.758-0.014
	l-0.029,0.814l-0.639,22.985l-9.623-1.598L307.115,398.881 M323.047,427.15c2.091,0.049,6.044-0.82,6.166-5.431l0.19-7.243
	c0-2.124-1.197-5.957-5.883-6.673c-2.153-0.323-6.748-0.964-6.748-0.964l-0.024,1.016l-0.268,18.173l6.494,1.12 M306.53,398.205
	l-1.521,57.798l10.987,1.691l0.623-23.699c0,0,6.476,0.521,8.739,2.595c2.263,2.07,2.35,5.749,2.257,9.338
	c-0.093,3.578-0.956,11.696,0.659,13.751c-0.005,0.176,11.07,2.042,11.07,2.042s-0.873-2.037-0.776-5.801
	c0.101-3.755,0.054-12.593,0.054-12.593s0.696-8.821-7.01-11.908c-0.093-0.005,7.38-2.174,7.561-8.991
	c0.18-6.816,0.139-8.835,0.139-8.835s0.354-6.378-5.379-10.381C328.195,399.211,306.53,398.205,306.53,398.205L306.53,398.205z
	 M323.029,426.379l-6.001-0.858l0.38-17.932c0,0,3.744,0.559,5.896,0.883c4.985,0.752,4.987,5.999,4.987,5.999
	s-0.135,5.121-0.19,7.221C327.974,426.478,323.029,426.379,323.029,426.379L323.029,426.379z"/>
<path fill="#56A361" d="M363.145,404.451c16.13,1.46,15.416,15.585,15.378,16.212l-0.859,32.703
	c-0.079,2.964-1.2,12.602-12.369,12.311c-1.415-0.04-3.042,0-4.68-0.35c-14.974-3.157-14.948-14.253-14.925-14.757l0.881-34.516
	c0.153-5.838,2.455-12.063,14.122-11.754C360.693,404.301,362.287,404.372,363.145,404.451z M362.662,458.675
	c3.673,0.101,5.924-2.106,6.024-5.893c0.073-2.765,1.025-33.784,1.036-34.102c0.051-2.375-1.276-6.997-6.672-7.52
	c-0.225-0.02-0.443-0.037-0.653-0.04c-4.381-0.119-6.011,3.148-6.091,6.228l-0.829,34.129c0.006,2.116,0.87,6.307,5.818,7.068
	C361.768,458.624,362.229,458.669,362.662,458.675 M360.611,403.55c-12.551-0.325-14.528,6.329-14.69,12.485l-0.897,34.108
	c0,0-0.701,12.581,15.43,15.983c1.77,0.37,3.367,0.561,4.813,0.6c11.75,0.31,13.408-9.444,13.508-13.335
	c0.115-4.365,0.862-32.708,0.862-32.708s0.963-15.403-16.473-16.98C362.266,403.624,361.417,403.574,360.611,403.55L360.611,403.55z
	 M362.689,457.625c-0.378-0.008-0.786-0.046-1.219-0.115c-5.322-0.813-5.333-6.045-5.333-6.045l0.828-34.105
	c0.049-1.883,1.222-5.299,5.404-5.191c0.184,0.005,0.376,0.017,0.571,0.036c5.799,0.562,5.672,6.45,5.672,6.45
	s-0.964,31.297-1.037,34.1C367.507,455.285,366.358,457.723,362.689,457.625L362.689,457.625z"/>
<path fill="#56A361" d="M387.813,407.599c2.263,0.21,8.381,1.154,18.863,2.508c13.854,1.796,13.007,15.133,12.963,15.746
	l-0.938,35.595c-0.26,9.881-8.716,10.73-12.339,10.637c-0.372-0.01-0.622-0.029-0.704-0.038l-19.467-2.873L387.813,407.599
	 M403.98,464.396c1.019,0.027,2.793,0.111,4.228-1.185c1.092-0.988,1.658-2.416,1.684-4.239c0.037-2.933,0.964-34.101,0.975-34.396
	c0.117-2.425-1.023-6.847-6.34-7.418c-2.821-0.305-7.211-0.778-7.211-0.778L396,463.261l7.206,1.068
	C403.236,464.336,403.532,464.381,403.98,464.396 M387.136,406.799l-1.657,62.961l20.029,3.324c0,0,0.307,0.035,0.828,0.046
	c3.003,0.081,13.183-0.48,13.478-11.654c0.347-13.117,0.936-35.592,0.936-35.592s1.168-14.862-13.926-16.814
	C392.502,407.213,387.136,406.799,387.136,406.799L387.136,406.799z M403.856,463.581c-0.38-0.008-0.623-0.042-0.623-0.042
	l-6.514-0.829l1.268-45.513c0,0,3.555,0.39,6.378,0.689c5.685,0.609,5.39,6.638,5.39,6.638s-0.938,31.454-0.977,34.43
	C408.721,463.257,405.291,463.619,403.856,463.581L403.856,463.581z"/>
<path fill="#56A361" d="M574.952,427.008L574.952,427.008c0.556,0.012,1.86,0.077,2.45,0.154
	c14.002,1.753,16.188,12.908,16.475,17.672l-1.164,44.263c-0.075,0.86-1.404,14.222-12.593,13.927
	c-1.063-0.027-2.202-0.174-3.386-0.44c-15.211-3.416-16.097-16.194-16.028-18.735l1.104-40.949
	C561.828,442.238,562.085,426.665,574.952,427.008 M570.656,484.913c-0.106,3.878,1.843,8.359,6.093,8.472
	c0.399,0.078,0.789,0.123,1.17,0.13c3.353,0.087,5.565-2.292,5.668-6.199c0.081-3.176,1.464-41.827,1.478-42.239
	c0.046-2.746-1.291-8.141-6.674-8.907c-0.307-0.041-0.606-0.066-0.9-0.078c-4.492-0.113-5.668,4.071-5.762,7.688L570.656,484.913
	 M575.694,425.977c-14.125-0.37-14.581,16.904-14.581,16.904s-0.987,37.512-1.066,40.524c-0.081,3.021,0.546,16.298,16.441,19.864
	c1.296,0.293,2.498,0.44,3.611,0.468c12.511,0.33,13.724-14.578,13.724-14.578s1.081-41.058,1.165-44.335
	c-0.188-3.291-1.502-16.712-17.442-18.705C576.902,426.038,576.287,425.991,575.694,425.977L575.694,425.977z M577.742,492.758
	c-0.305-0.007-0.633-0.043-0.973-0.109c-5.997-1.164-5.352-8.02-5.352-8.02l0.889-40.84c0.044-1.56,0.597-6.766,5.161-6.648
	c0.236,0.008,0.492,0.027,0.759,0.069c5.844,0.829,5.727,7.847,5.727,7.847s-1.396,39.011-1.479,42.229
	C582.395,490.201,580.817,492.836,577.742,492.758L577.742,492.758z"/>
<path fill="#F6D545" d="M300.741,81.125l13.753-3.395l13.565,1.951l-10.003,241.853l-13.718,0.822l-24.396-1.008l7.385-181.105
	l-21.994,4.248l-6.804-1.333l7.873-24.521C266.404,118.638,292.105,114.866,300.741,81.125z"/>
<path fill="#F6D545" d="M349.563,254.907l22.842,0.439l13.768,3.544c0,0-0.783,10.89,0.18,17.538
	c0.964,6.652,3.863,14.896,14.822,16.012c10.958,1.112,8.065-10.81,9.599-15.635c1.535-4.827,2.042-12.471,2.211-16.563
	c0.169-4.091,2.038-49.287,2.038-49.287s21.191,25.464-32.782,23.231c-9.419-0.39-13.665-1.343-13.665-1.343
	c-16.743-8.351-17.215-35.275-16.432-54.225c0.933-22.563,2.096-50.666,2.096-50.666s1.6-54.781,47.163-64.528
	c45.561-9.748,55.521,29.555,54.751,48.191c-0.77,18.637-5.275,99.902-5.275,99.902s-0.453,38.615-1.093,54.08
	s-6.273,63.908-53.782,61.944C348.497,325.579,348.725,275.158,349.563,254.907z M389.997,174.568
	c-0.369,8.907,1.324,21.269,14.311,21.806c16.036,0.862,12.152-21.337,12.152-21.337s2.012-50.374,2.2-54.925
	c0.188-4.552,5.054-23.943-10.624-21.341c-15.379,2.555-15.106,19.253-15.106,19.253S390.365,165.661,389.997,174.568z"/>
<path fill="#F6D545" d="M516.643,43.674c53.196-11.282,55.663,44.72,54.929,62.484c-0.913,22.067-3.794,81.724-5.35,119.329
	c-2.479,59.957-3.07,113.726-58.045,112.644c-54.256-1.068-45.835-80.603-45.835-80.603l23.286,0.369l14.111,3.47
	c-0.303,7.323-4.359,36.298,15.326,37.111c19.69,0.815,10.998-36.928,10.998-36.928s2.177-52.645,2.186-52.844
	c-3.775,14.148,8.203,27.231-34.341,25.471c-4.779-0.197-7.141-0.778-10.266-2.248c-22.149-10.434-17.664-62.079-17.664-62.079
	l2.234-54.034C468.336,112.849,470.061,53.55,516.643,43.674z M506.496,172.582c-0.093,2.263,0.07,20.093,14.76,20.7
	c15.995,0.662,8.851-23.688,8.851-23.688s2.628-63.523,2.642-63.863c-0.006-3.738,9.528-22.454-7.017-20.644
	c-16.54,1.811-16.477,26.543-16.477,26.543S506.59,170.318,506.496,172.582z"/>
<path fill="#D14A43" d="M295.054,83.596l18.45-3.799l-10.088,240.464l-28.358-1.962l6.214-181.348l-21.771,4.651l2.135-20.531
	C261.635,121.072,286.417,117.34,295.054,83.596z"/>
<path fill="#D14A43" d="M343.059,255.686l28.455,0.581c0,0-0.337,12.808,0.623,19.455c0.965,6.652,4.67,14.89,15.629,16.008
	c10.958,1.111,16.34-9.201,17.874-14.027c1.535-4.828,1.957-16.242,2.125-20.332c0.17-4.091,0.754-48.145,0.754-48.145
	s-6.238,24.125-32.867,23.025c-26.632-1.102-29.556-31.755-28.623-54.316c0.934-22.564,2.071-50.072,2.071-50.072
	s-0.918-53.833,44.644-63.58c45.563-9.747,48.981,38.9,48.539,49.59c-0.441,10.688-4.19,101.332-4.19,101.332l-2.288,51.851
	c0,0,0.426,61.157-47.081,59.192C341.217,324.283,346.735,274.87,343.059,255.686z M376.885,175.083
	c-0.369,8.907,2.464,21.316,15.452,21.854c16.036,0.862,17.275-22.183,17.275-22.183s2.012-50.374,2.2-54.925
	c0.188-4.552-0.071-23.097-15.749-20.495c-15.378,2.554-16.248,19.205-16.248,19.205S377.253,166.176,376.885,175.083z"/>
<path fill="#D14A43" d="M509.033,44.469c52.949-13.709,47.335,61.434,47.335,61.434s-3.858,82.91-5.414,120.514
	c-1.555,37.604,5.578,110.46-49.397,109.376c-54.256-1.067-45.386-77.414-45.386-77.414l28.835,0.796
	c-0.303,7.322-3.714,37.912,15.977,38.727c19.686,0.814,18.924-32.524,18.924-32.524s1.706-39.002,2.074-53.642
	c0.094-3.918-0.646-4.944-0.786-5.186c-4.396,16.469-21.391,33.411-43.54,22.98c-22.145-10.432-17.272-59.2-17.272-59.2l1.776-55.04
	C462.282,112.321,467.428,55.237,509.033,44.469z M490.189,171.908c-0.094,2.262,1.211,20.14,15.897,20.747
	c15.996,0.662,17.172-23.344,17.172-23.344s2.628-63.523,2.642-63.863c-0.007-3.738,1.205-22.798-15.339-20.988
	c-16.539,1.812-17.619,26.496-17.619,26.496S490.282,169.644,490.189,171.908z"/>
<path fill="#9D4D46" d="M314.344,81.369l-10.917,236.25l-25.385-2.368l7.042-176.017c0.036-0.932-0.223-1.827-0.708-2.447
	c-0.395-0.507-0.908-0.79-1.445-0.813c-0.123-0.005-0.249,0.005-0.375,0.027l-19.305,3.612l0.664-16.067
	c6.327-1.629,25.839-11.222,33.888-39.678L314.344,81.369 M313.118,78.377l-16.942,2.56c-8.636,33.741-34.336,37.513-34.336,37.513
	l-1.026,24.804l21.987-4.113l-7.421,182.02l27.94-0.902L313.118,78.377L313.118,78.377z"/>
<path fill="#9D4D46" d="M371.695,255.301l-26.699-0.583c-1.05,25.393-1.026,69.736,46.48,71.7l16.82-3.536l15.808-13.568
	c-7.854,10.438-18.801,15.443-32.536,14.876c-19.547-0.81-32.817-10.169-39.445-27.817c-4.822-12.841-5.259-27.548-4.953-38.441
	l24.252,0.019L371.695,255.301z M409.93,65.144c10.119,0.418,18.116,4.524,23.877,12.232l-1.648-2.033
	c-5.34-6.186-11.915-12.212-22.722-12.66l-1.232-0.181c-3.961-0.164-6.501-0.305-11.367,0.735
	c-51.715,11.066-48.302,64.428-48.302,64.428s-1.481,31.438-2.415,54c-0.934,22.563,3.378,50,30.01,51.102
	c19.371,0.801,28.085-15.538,31.297-22.496c1.203-2.608,3.029,0.498,3.029,0.498s-1.869,45.195-2.038,49.286
	c-0.17,4.092-0.675,11.736-2.209,16.563c-1.485,4.672-5.354,14.084-15.551,13.663c-0.332-0.014-0.67-0.04-1.017-0.073l-0.23,3.161
	c0.38,0.034,0.752,0.065,1.116,0.08c8.269,0.343,14.939-5.12,18.297-15.681c1.589-4.999,2.184-12.374,2.403-17.676l1.513-49.229
	c0.065-1.569-0.712-2.931-1.822-3.206c-0.111-0.027-0.223-0.043-0.33-0.047c-5.611-0.247-4.499,5.685-4.85,7.024
	c-2.254,0.014-3.479,17.21-27.931,16.199c-11.027-0.456-18.934-6.561-23.502-18.144c-4.379-11.109-4.833-24.707-4.441-34.163
	l2.098-50.719c0.003-0.13,0.005-14.466,5.754-28.534c7.712-18.873,21.264-29.022,39.41-32.904
	C401.678,65.393,405.985,64.981,409.93,65.144 M394.452,201.505c14.307,0.592,20.55-15.451,21.022-26.885
	c0.021-0.506,1.939-50.333,2.126-54.832c0.387-14.606-5.608-21.644-16.972-22.113l1.186,1.517
	c12.247,0.506,12.454,16.542,12.281,20.73c-0.188,4.551-2.201,54.925-2.201,54.925s-1.918,23.468-17.757,22.813l0,0
	c-0.069-0.003-0.137-0.005-0.206-0.009c-12.989-0.537-17.683-9.786-17.314-18.69l-0.74,0.287c-0.112,2.71,0.966,2.62,1.296,5.242
	C378.28,193.264,380.147,200.914,394.452,201.505z"/>
<path fill="#9D4D46" d="M492.899,231.174c-3.849-0.158-7.819-1.192-11.804-3.068c-20.235-9.534-16.734-57.472-16.703-57.959
	c0.001-0.031,0.002-0.066,0.003-0.099l2.235-54.031l0.006-0.145c0.387-9.953,5.216-60.908,47.195-69.808
	c4.178-0.886,8.131-1.261,11.76-1.111l11.13,2.896c-3.746-1.874-7.411-5.3-12.477-5.51l0,0c-3.67-0.151-7.715,0.199-12.172,1.145
	c-46.581,9.876-48.304,69.175-48.427,72.143l-2.234,54.034c0,0-3.256,51.012,18.895,61.447c4.383,2.065,8.553,3.071,12.462,3.232
	L492.899,231.174z M521.083,207.537c1.649-2.096,1.911,0.243,2.599,0.979c-0.008,0.199-2.185,52.844-2.185,52.844
	s1.367,36.137-18.322,35.324l-7.625,0.339c1.946,1.714,4.246,2.693,7.494,2.828c5.551,0.229,10.137-2.164,13.636-7.122
	c7.479-10.587,7.468-28.795,7.403-30.986l2.179-52.683c0.065-1.566-1-3.38-2.104-3.661c-0.116-0.029-0.23-0.045-0.347-0.049
	c-0.984-0.041-3.041,0.058-3.041,0.058c-0.449,1.683-1.027,3.403-1.731,5.122 M522.642,331.201
	c-5.453,2.536-11.736,3.717-18.933,3.57c-0.385-0.004-0.768-0.017-1.144-0.031c-14.294-0.591-25.229-7.007-32.498-19.074
	c-11.307-18.768-10.519-46.309-10.002-55.144l24.819-0.174l0.173-2.421l-27.281-0.588c0,0-10.635,77.74,42.329,79.929
	c0.39,0.017,0.782,0.027,1.179,0.032c3.336,0.065,7.406-0.681,10.311-1.16L522.642,331.201z M509.38,195.962
	c14.44,0.597,19.124-16.996,19.585-26.416l2.642-63.863c0.003-0.063,0.005-0.125,0.004-0.188c-0.001-0.191,0.004-0.419,0.007-0.689
	c0.244-18.894-7.652-21.059-14.479-21.341l-0.586,0.371c13.567,0.561,12.766,18.244,12.771,21.754
	c-0.013,0.34-2.642,63.863-2.642,63.863s-1.247,24.782-17.241,24.121l0,0c-0.639-0.026-1.257-0.084-1.85-0.171l-9.166-1.625
	C500.966,194.102,504.495,195.76,509.38,195.962"/>
<path fill="#3C5743" d="M312.061,81.275l-9.836,237.824l-26.717-1.105L282.8,139.14c0.038-0.932-0.22-1.827-0.708-2.448
	c-0.394-0.507-0.907-0.79-1.441-0.812c-0.125-0.005-0.25,0.005-0.377,0.027l-19.306,3.612l0.763-18.439
	c6.328-1.627,25.741-8.85,33.791-37.307L312.061,81.275 M314.495,77.73l-20.601,3.112c-8.636,33.74-34.336,37.512-34.336,37.512
	l-1.026,24.804l21.988-4.114l-7.423,182.021l31.281,1.294L314.495,77.73L314.495,77.73z"/>
<path fill="#3C5743" d="M407.647,65.049c13.319,0.551,22.963,7.492,28.668,20.628c4.42,10.18,5.247,21.418,5.039,26.451
	l-4.134,99.949l-2.235,54.034c-0.001,0.046-0.003,0.092-0.003,0.137c-0.004,0.259-0.395,26.011-13.159,42.972
	c-7.855,10.437-18.804,15.443-32.537,14.874c-19.545-0.808-32.817-10.168-39.446-27.817c-4.822-12.839-5.259-27.546-4.952-38.441
	l26.398-0.011c-0.187,4.258-0.365,11.633,0.339,16.489c1.633,11.281,5.969,17.987,15.505,18.958c0.378,0.036,0.75,0.066,1.115,0.082
	c8.268,0.342,14.939-5.121,18.295-15.681c1.59-5,2.185-12.374,2.404-17.677l1.512-49.228c0.064-1.569-0.713-2.931-1.822-3.207
	c-0.11-0.027-0.221-0.043-0.331-0.047c-0.993-0.042-1.931,0.829-2.282,2.17c-0.234,0.901-6.044,22.064-30.497,21.053
	c-11.027-0.456-18.934-6.562-23.503-18.144c-4.378-11.108-4.831-24.707-4.44-34.163l2.098-50.719
	c0.003-0.13,0.002-14.466,5.752-28.535c7.713-18.873,21.264-29.022,39.413-32.904C399.395,65.298,403.704,64.887,407.647,65.049
	 M407.729,62.483c-3.963-0.164-8.541,0.654-13.407,1.694c-45.563,9.747-46.458,63.635-46.458,63.635s-1.062,27.977-1.994,50.539
	c-0.933,22.564,3.581,53.941,30.211,55.043c23.228,0.42,32.438-24.167,32.438-24.167s-1.752,46.978-1.922,51.069
	c-0.169,4.094-0.574,11.608-2.108,16.435c-1.486,4.675-6.014,14.686-16.211,14.265c-0.333-0.014-0.671-0.039-1.017-0.072
	c-10.957-1.119-13.961-8.739-14.924-15.39c-0.963-6.646-0.623-19.455-0.623-19.455l-28.649-0.524
	c-0.837,20.25-1.471,68.802,46.037,70.768c47.507,1.965,46.68-59.797,46.68-59.797l2.885-53.671c0,0,3.245-90.006,3.688-100.69
	C442.748,102.615,440.865,63.854,407.729,62.483L407.729,62.483z M392.186,200.104l0.225,0.012
	c14.306,0.592,20.311-14.155,20.783-25.589c0.021-0.506,1.938-50.334,2.123-54.832c0.388-14.606-5.605-21.643-16.972-22.113
	l1.187,1.517c12.248,0.506,12.454,16.542,12.28,20.73c-0.188,4.551-2.2,54.925-2.2,54.925s-1.229,22.851-17.07,22.196l0,0
	c-0.068-0.002-0.136-0.008-0.205-0.013c-12.988-0.537-15.82-12.946-15.452-21.854l-0.74,0.288c-0.112,2.712-0.049,5.454,0.283,8.078
	C377.536,192.221,381.638,199.667,392.186,200.104"/>
<path fill="#3C5743" d="M523.31,44.859c10.468,0.433,17.186,5.766,22.868,14.756l-4.435-7.847
	c-8.027-9.849-27.46-8.509-31.914-7.564c-46.576,9.876-47.547,68.117-47.671,71.087l-2.547,54.712c0,0-3.049,49.535,19.102,59.968
	c4.382,2.065,7.905,2.606,11.818,2.768c15.852,0.655,27.882-13.737,31.407-26.951l-1.848,55.136c0,0,0.65,37.796-19.039,36.981
	c-20.818-0.86-16.269-35.117-16.095-39.326l-28.496-0.287c0,0-9.289,76.057,43.676,78.246c0.388,0.017,0.781,0.03,1.177,0.036
	c54.977,1.087,48.203-73.639,49.759-111.244l-0.672,0.666c-0.178,4.265-0.176,8.346-0.268,13.371
	c-0.469,25.944-1.579,61.02-16.15,80.455c-7.706,10.275-18.359,15.14-32.559,14.854c-0.381-0.005-0.769-0.016-1.137-0.03
	c-14.297-0.593-25.232-7.007-32.506-19.074c-11.303-18.768-10.452-47.459-9.935-56.292l26.573,0.268
	c-0.518,7.563-0.938,23.261,4.806,32.317c3.056,4.817,5.838,7.656,11.535,7.892c5.554,0.229,10.14-2.163,13.638-7.121
	c7.476-10.588,7.466-28.796,7.405-30.986l2.179-52.683c0.065-1.566-1.003-3.38-2.109-3.661c-0.113-0.029-0.229-0.045-0.34-0.049
	c-0.988-0.041-1.92,0.81-2.272,2.138c-3.264,12.226-14.152,24.286-28.641,23.687c-3.854-0.16-7.823-1.192-11.807-3.068
	c-20.237-9.534-16.734-57.473-16.704-57.959c0.002-0.031,0.003-0.066,0.005-0.1l2.234-54.03l0.006-0.146
	c0.388-9.953,5.218-60.907,47.196-69.808c4.175-0.886,8.13-1.261,11.755-1.111 M507.099,195.868
	c14.44,0.597,19.12-16.997,19.583-26.416l2.642-63.863c0.003-0.063,0.007-0.125,0.007-0.188c0.001-0.191,0.004-0.419,0.007-0.689
	c0.243-18.894-7.653-21.059-14.48-21.341l-0.587,0.371c13.567,0.561,12.763,18.244,12.772,21.754
	c-0.014,0.34-2.642,63.863-2.642,63.863s-1.25,24.782-17.244,24.121l0,0c-14.688-0.607-17.541-18.085-17.447-20.35l0.183,1.938
	C489.701,179.673,491.47,195.222,507.099,195.868"/>
<path fill="#54AB62" d="M312.111,80.072l-9.886,239.027l-28.11,0.083l7.544-180.089c0.104-2.516-0.341-2.139-2.217-1.676
	c-0.124-0.005-0.249,0.003-0.375,0.028l-19.305,3.609l0.893-21.604c6.327-1.628,25.74-8.85,33.79-37.307L312.111,80.072
	 M314.495,77.73l-21.236,2.619c-8.636,33.74-33.981,37.254-33.981,37.254l-0.774,26.235l21.996-4.266l-7.403,181.492l31.281,1.294
	L314.495,77.73L314.495,77.73z"/>
<path fill="#54AB62" d="M407.713,63.468c13.319,0.551,22.897,9.073,28.603,22.209c4.42,10.18,5.247,21.418,5.039,26.451
	l-4.134,99.949l-2.235,54.034c-0.001,0.046-0.003,0.092-0.003,0.137c-0.004,0.259-0.395,26.011-13.159,42.972
	c-7.855,10.437-18.557,16.362-32.289,15.794c-19.547-0.809-33.723-8.752-40.351-26.401c-4.822-12.837-5.961-28.16-5.372-42.407
	l27.354,0.574c-0.189,4.256-0.432,13.216,0.273,18.072c1.633,11.283,6.221,15.865,15.757,16.838c0.377,0.036,0.75,0.061,1.115,0.076
	c8.268,0.342,13.207-3.521,16.564-14.082c1.588-5,2.183-12.373,2.403-17.677l2.038-49.286c0.064-1.569,0.428-2.884-0.682-3.159
	c-0.11-0.027-0.221-0.043-0.331-0.047c-0.993-0.042-1.931,0.829-2.282,2.17c-0.234,0.901-6.109,23.646-30.563,22.634
	c-11.027-0.456-20.01-8.19-24.579-19.772c-4.38-11.109-4.833-24.707-4.442-34.163l2.097-50.719
	c0.005-0.13-0.695-13.128,5.052-27.195c7.225-20.824,23.173-31.899,41.322-35.781C399.46,63.716,403.769,63.305,407.713,63.468
	 M392.476,198.533c14.306,0.592,18.933-14.651,19.419-23.691c0.019-0.505,2.014-50.422,2.2-54.919
	c0.445-10.774-3.132-21.938-14.497-22.409c-1.198-0.049-2.48,0.035-3.809,0.257c-17.111,2.84-17.401,20.49-17.41,20.677
	c-0.027,0.475-2.569,47.767-2.934,56.596c-0.487,11.771,3.104,22.909,16.806,23.476 M407.778,61.885
	c-3.963-0.164-8.357,0.218-13.226,1.258c-48.626,10.402-47.137,63.747-47.161,64.528c0,0-1.162,28.104-2.095,50.666
	c-0.933,22.563,3.464,54.467,30.096,55.568c26.63,1.102,32.781-23.231,32.781-23.231s-1.87,45.195-2.039,49.287
	c-0.169,4.092-0.677,11.735-2.208,16.563c-1.487,4.672-5.354,14.083-15.551,13.661c-0.333-0.014-0.672-0.039-1.019-0.071
	c-10.956-1.117-13.856-9.36-14.818-16.013c-0.963-6.647-0.124-18.908-0.124-18.908l-29.701-0.568
	c-0.837,20.251-1.066,70.672,46.441,72.637c47.509,1.964,48.112-61.056,48.112-61.056l2.234-54.033c0,0,3.691-89.262,4.134-99.949
	C444.03,102.679,440.915,63.255,407.778,61.885L407.778,61.885z M392.541,196.949c-0.068-0.002-0.136-0.008-0.205-0.013
	c-12.988-0.537-15.568-12.949-15.2-21.856c0.369-8.907,2.932-56.543,2.932-56.543s0.616-16.648,15.995-19.203
	c1.252-0.208,2.405-0.279,3.469-0.235c12.248,0.506,12.454,16.542,12.28,20.73c-0.188,4.551-2.2,54.925-2.2,54.925
	S408.383,197.604,392.541,196.949L392.541,196.949z"/>
<path fill="#54AB62" d="M521.898,43.83c10.47,0.433,18.597,6.795,24.279,15.786c11.069,17.51,9.219,45.513,9.196,45.792
	c-0.002,0.039-0.004,0.077-0.005,0.117c-0.039,0.815-3.816,82.164-5.354,119.349c-0.177,4.265-0.262,9.01-0.351,14.037
	c-0.469,25.946-1.111,61.478-15.683,80.913c-7.706,10.275-18.425,16.723-32.624,16.439c-0.381-0.006-0.769-0.019-1.137-0.034
	c-14.297-0.591-26.005-6.753-33.276-18.817c-11.303-18.764-10.977-46.548-10.479-58.583l27.881,0.646
	c-0.515,7.56-1.375,23.661,4.364,32.715c3.06,4.818,6.257,6.324,11.95,6.56c5.549,0.229,9.094-1.202,12.595-6.16
	c7.479-10.588,7.691-29.209,7.63-31.401l1.654-52.718c0.065-1.565,0.438-2.883-0.668-3.165c-0.113-0.029-0.229-0.045-0.34-0.049
	c-0.988-0.041-1.92,0.81-2.272,2.138c-3.264,12.226-14.152,24.286-28.641,23.687c-3.854-0.16-8.962-1.239-12.949-3.116
	c-20.236-9.534-17.438-57.769-17.407-58.255c0.002-0.03,0.003-0.066,0.004-0.096l2.234-54.034l0.007-0.146
	c0.388-9.955,5.652-61.594,47.633-70.496C514.314,44.053,518.271,43.68,521.898,43.83 M506.021,194.236
	c14.438,0.598,19.06-15.412,19.521-24.831l2.642-63.863c0.003-0.063,0.001-0.126,0.003-0.189c-0.002-0.191,0.002-0.419,0.006-0.689
	c0.244-18.894-8.131-21.948-14.96-22.23c-0.973-0.041-2.011-0.002-3.075,0.115c-14.697,1.607-18.322,18.817-18.736,28.325
	c-0.109,2.399-2.664,58.724-2.757,60.971C488.475,176.451,490.391,193.59,506.021,194.236 M521.965,42.246
	c-3.674-0.152-7.716,0.199-12.174,1.145c-46.579,9.876-48.303,69.175-48.426,72.143l-2.235,54.034c0,0-3.255,51.012,18.893,61.447
	c4.382,2.065,8.553,3.069,12.467,3.231c15.852,0.656,27.384-12.612,30.915-25.823c-0.009,0.199-1.569,52.855-1.569,52.855
	s0.747,36.126-18.943,35.313c-19.688-0.815-15.566-31.374-15.264-38.695l-30.135-0.652c0,0-8.303,78.377,44.663,80.566
	c0.385,0.017,0.78,0.028,1.176,0.036c54.971,1.082,49.414-75.276,50.97-112.88c1.555-37.604,5.348-119.329,5.348-119.329
	S562.136,43.907,521.965,42.246L521.965,42.246z M506.087,192.655c-14.687-0.607-15.991-18.485-15.897-20.747
	c0.093-2.264,2.753-60.952,2.753-60.952s1.08-24.685,17.619-26.496c1.011-0.109,1.947-0.142,2.831-0.106
	c13.57,0.562,12.503,17.584,12.508,21.094c-0.014,0.34-2.642,63.863-2.642,63.863S522.083,193.316,506.087,192.655L506.087,192.655z
	"/>
<path fill="#F6D545" d="M670.375,24.099l11.554,4.279l-9.845,213.404l3.971-2.353l12.782,2.517l-1.76,42.548l-12.891,1.035
	l-3.542-0.209l-0.622,55.859l-12.867,2.561l-21.044-59.415l-58.389-2.415l1.76-42.549l64.372-209.426L670.375,24.099z
	 M609.455,238.096l28.89,1.195l5.804-113.569L609.455,238.096z"/>
<path fill="#D14A43" d="M637.201,29.66l33.174-5.561l-8.525,215.075l14.229,0.588l-1.897,45.881l-14.588-0.859l-2.438,58.956
	l-30.041-3.041l2.343-56.648l-58.387-2.415l1.759-42.549L637.201,29.66z M601.696,237.774l29.992,1.241l4.699-113.614
	L601.696,237.774z"/>
<path fill="#9D4D46" d="M668.765,29.655 M603.219,238.278 M669.186,26.092L669.186,26.092l-29.766,3.66l-64.375,209.426l-1.76,42.55
	l58.388,2.415l-3.394,55.194l4.223-1.364l2.223-53.704c0.07-1.699,0.013-4.826-2.852-4.945l-56.166-2.322l1.537-37.188
	l63.108-205.324l28.412-4.834 M600.702,238.216l0.659,2.421c0,0,7.958,1.739,31.905,2.73c4.065,0.168,3.895-2.422,3.964-4.123
	l4.699-113.615c0.062-1.49-0.667-1.031-1.713-1.335c-0.135-0.038-4.809-0.298-2.979-0.271c-0.918-0.038-0.836,7.781-0.168,2.803
	l1.133,1.717l-4.695,111.243L600.702,238.216z"/>
<path fill="#3C5743" d="M668.02,27.583l-8.387,211.506c-0.065,1.696,0.869,3.11,2.089,3.161l12.015,0.497l-1.642,39.692
	l-12.347-0.727c-0.007-0.002-0.015-0.002-0.027-0.002c-0.58-0.024-1.157,0.271-1.596,0.821c-0.443,0.56-0.714,1.338-0.749,2.162
	l-2.271,54.904l-24.823-1.718l2.222-53.703c0.07-1.699-0.073-1.493-2.938-1.612l-56.235-1.899l1.692-40.945l63.695-207.226
	L668.02,27.583 M669.764,25.441l-32.259,4.732l-64.114,209.371l-1.768,41.044l58.234,2.696l-1.67,56.049l28.209,2.63l2.143-58.457
	l14.695,0.417l1.474-42.307l-14.363-1.748L669.764,25.441L669.764,25.441z M600.997,238.186c-0.284,0.931,0.43-0.233,0.808,0.608
	c0.381,0.844,1.347,0.25,2.073,0.28l1.102,0.237l27.693,2.828c1.221,0.05,2.273-1.286,2.344-2.986l4.699-113.615
	c0.061-1.491-0.673-1.032-1.719-1.336c-0.128-0.037-1.42-0.335-1.546-0.34c-0.915-0.038-0.455,0.923-0.827,2.133l0.771-0.734
	l-3.594,113.8L600.997,238.186L600.997,238.186"/>
<path fill="#54AB62" d="M668.02,27.583l-8.387,211.506c-0.065,1.696,0.869,3.11,2.089,3.161l12.015,0.497l-1.642,39.692
	l-12.347-0.727c-0.007-0.002-0.015-0.002-0.027-0.002c-0.58-0.024-1.157,0.271-1.596,0.821c-0.443,0.56-0.714,1.338-0.749,2.162
	l-2.305,55.743l-26.792-1.101l2.284-55.24c0.07-1.7,0.185-1.533-1.043-1.584l-57.276-2.368l1.673-40.469l63.757-208.763
	L668.02,27.583 M631.562,242.093c1.226,0.051,2.272-1.286,2.343-2.986l4.698-113.615c0.063-1.491-0.716-1.263-1.766-1.565
	c-0.129-0.038-0.26-0.06-0.386-0.064c-0.915-0.038-0.681,0.762-1.058,1.977l-34.691,112.376c-0.286,0.935,0.957,1.217,1.677,1.247
	L631.562,242.093z M670.375,24.099l-33.174,5.561l-64.372,209.426l-1.759,42.549l58.387,2.415l-2.343,56.648l30.041,3.041
	l2.438-58.956l14.588,0.859l1.897-45.881l-14.229-0.588L670.375,24.099L670.375,24.099z M601.696,237.774l34.691-112.374
	l-4.699,113.614L601.696,237.774L601.696,237.774z"/>
</svg>
