<?xml version="1.0" standalone="no"?>
<!DOCTYPE svg PUBLIC "-//W3C//DTD SVG 20010904//EN"
 "http://www.w3.org/TR/2001/REC-SVG-20010904/DTD/svg10.dtd">
<svg version="1.0" xmlns="http://www.w3.org/2000/svg"
 width="308.000000pt" height="308.000000pt" viewBox="0 0 308.000000 308.000000"
 preserveAspectRatio="xMidYMid meet">
<metadata>
Created by potrace 1.11, written by Peter Selinger 2001-2013
</metadata>
<g transform="translate(0.000000,308.000000) scale(0.100000,-0.100000)"
fill="#000000" stroke="none">
<path d="M1558 3063 c-9 -10 -20 -27 -26 -38 -7 -14 -22 -22 -44 -23 -19 -1
-45 -4 -58 -7 -16 -3 -33 3 -50 18 -14 13 -34 24 -45 24 -19 1 -20 -5 -19 -95
0 -84 4 -104 26 -147 14 -28 34 -60 44 -71 19 -21 154 -79 154 -66 0 4 20 21
45 37 49 33 52 41 60 161 5 78 3 84 -31 153 -19 39 -37 71 -38 71 -2 0 -10 -8
-18 -17z m-200 -240 c7 -12 12 -28 12 -35 -1 -7 -9 3 -20 22 -11 19 -19 51
-18 70 l0 35 7 -35 c4 -19 13 -45 19 -57z m52 -82 c0 -5 23 -17 50 -26 28 -9
50 -20 50 -25 0 -9 -31 -2 -81 18 -26 10 -48 42 -29 42 6 0 10 -4 10 -9z"/>
<path d="M945 2780 c-85 -7 -270 -73 -290 -104 -15 -24 -35 -141 -26 -153 4
-4 4 -6 1 -5 -3 2 -10 -20 -16 -50 -7 -38 -7 -57 0 -67 8 -11 8 -13 -1 -8 -8
5 -14 -10 -19 -50 -4 -32 -8 -65 -8 -73 0 -8 -6 -19 -14 -23 -7 -5 -31 -47
-53 -94 l-39 -84 6 -202 c5 -188 9 -246 16 -252 2 -2 19 -12 38 -24 35 -21 35
-30 0 -11 -22 12 -38 -5 -58 -59 -24 -61 -25 -90 -7 -139 9 -26 19 -53 21 -61
4 -13 52 44 82 96 14 23 59 23 78 0 10 -12 12 -16 4 -9 -19 16 -48 15 -66 -2
-11 -11 -13 -29 -8 -70 4 -31 10 -53 15 -51 4 3 22 28 40 55 18 27 36 47 40
44 20 -12 7 24 -15 46 -18 16 -33 21 -51 18 -15 -3 -23 -2 -18 2 32 31 101 -2
99 -47 -1 -17 -6 -27 -13 -26 -9 2 -13 -14 -13 -54 0 -31 4 -53 8 -48 5 6 28
35 52 65 25 30 49 58 55 62 13 9 9 130 -5 138 -5 3 -36 3 -67 -1 -43 -5 -62
-3 -72 7 -8 7 -13 15 -10 18 2 2 36 7 74 10 l70 5 -70 -13 c-38 -7 -65 -14
-60 -16 12 -3 53 0 80 5 11 2 27 4 36 4 11 1 38 49 82 144 l65 142 -42 165
-41 165 -65 3 c-36 2 -68 6 -73 11 -4 4 26 6 66 4 l73 -4 89 97 c103 110 126
143 120 164 -2 8 -6 44 -10 79 -5 60 -4 66 18 85 67 58 106 96 115 112 9 16 4
21 -36 37 -54 22 -80 24 -177 17z m-318 -352 c-3 -7 -5 -2 -5 12 0 14 2 19 5
13 2 -7 2 -19 0 -25z m43 -189 c14 -9 23 -19 20 -22 -10 -11 -90 48 -90 65 0
15 3 14 23 -5 12 -12 33 -29 47 -38z m156 -27 c-6 -9 -114 -7 -123 2 -4 3 24
6 61 6 37 0 65 -4 62 -8z m-323 -195 c3 -26 2 -45 -2 -43 -4 3 -9 26 -10 52
-2 60 5 54 12 -9z m5 -193 l-3 -119 -5 127 c-3 70 -1 124 3 119 4 -4 6 -61 5
-127z m12 -134 c0 -5 -2 -10 -4 -10 -3 0 -8 5 -11 10 -3 6 -1 10 4 10 6 0 11
-4 11 -10z m0 -35 c0 -8 23 -29 50 -46 53 -33 62 -45 31 -45 -11 0 -18 3 -15
7 2 4 -13 17 -35 30 -24 13 -41 31 -44 45 -2 13 0 24 4 24 5 0 9 -7 9 -15z
m-26 -244 c22 -67 19 -87 -4 -31 -17 42 -25 80 -16 80 2 0 11 -22 20 -49z
m116 -71 c0 -16 -2 -30 -4 -30 -2 0 -6 14 -8 30 -3 17 -1 30 4 30 4 0 8 -13 8
-30z"/>
<path d="M1936 2716 l-101 -61 0 -71 -1 -71 80 -85 c45 -46 124 -130 177 -186
53 -56 103 -102 110 -102 8 0 25 6 39 13 14 7 47 21 74 31 42 16 51 25 71 69
l22 51 -22 55 c-12 31 -52 128 -89 217 l-68 161 -95 20 -95 20 -102 -61z m-79
-113 c-3 -10 -5 -2 -5 17 0 19 2 27 5 18 2 -10 2 -26 0 -35z m144 -224 c169
-179 213 -229 204 -229 -4 0 -55 51 -115 113 -251 263 -240 249 -238 287 l1
35 6 -31 c4 -23 46 -74 142 -175z"/>
<path d="M1683 2757 c-10 -4 -26 -27 -34 -50 -10 -31 -25 -48 -59 -68 -25 -15
-52 -28 -60 -28 -8 -1 -47 13 -86 30 -55 24 -76 39 -95 70 -15 24 -29 37 -39
35 -8 -3 -36 -8 -63 -12 -43 -6 -55 -14 -125 -85 -42 -44 -78 -83 -80 -87 -3
-9 75 -242 110 -330 13 -33 17 -56 11 -60 -17 -12 -22 -39 -10 -52 9 -9 9 -11
1 -7 -8 5 -16 -15 -24 -60 l-11 -66 93 -96 c51 -52 94 -97 96 -100 1 -2 5 -2
8 1 6 7 3 10 -101 117 -38 39 -65 71 -59 71 13 0 30 -15 118 -109 49 -51 66
-75 57 -80 -9 -6 -6 -14 13 -28 20 -16 42 -21 108 -22 l83 -2 75 103 c41 56
92 126 112 156 l37 54 -24 48 c-14 27 -29 51 -34 54 -5 4 -40 -8 -78 -26 -45
-21 -87 -32 -123 -34 -55 -3 -55 -3 -10 5 25 4 82 26 128 49 l83 43 45 97 c25
53 47 111 49 127 6 41 17 228 19 295 l1 54 -56 1 c-31 1 -65 -3 -76 -8z m-553
-387 l53 -150 63 -42 c35 -24 64 -49 64 -57 0 -14 -13 -7 -49 27 -7 7 -20 11
-27 8 -8 -3 -13 -2 -11 3 1 4 -10 18 -25 32 -21 18 -42 65 -83 182 -30 87 -51
156 -46 153 5 -3 32 -73 61 -156z m398 -251 c-7 -5 -41 -9 -75 -9 -53 0 -63
-3 -63 -17 -1 -17 -1 -17 -10 -1 -6 10 -18 14 -30 11 -11 -3 -20 -1 -20 4 0 5
32 10 72 11 40 2 73 4 74 5 1 1 17 2 34 3 21 1 27 -2 18 -7z m-161 -35 c-3 -3
-12 -4 -19 -1 -8 3 -5 6 6 6 11 1 17 -2 13 -5z m-217 -84 c0 -5 -2 -10 -4 -10
-3 0 -8 5 -11 10 -3 6 -1 10 4 10 6 0 11 -4 11 -10z m297 -232 c40 -3 76 -7
79 -11 4 -4 -22 -5 -57 -3 -35 2 -74 4 -85 5 -12 1 -25 8 -28 17 -5 13 -3 14
6 6 8 -6 46 -12 85 -14z"/>
<path d="M2428 2267 c-9 -9 -24 -37 -33 -61 -16 -42 -21 -46 -106 -81 -89 -37
-89 -37 -90 -73 0 -21 -2 -46 -4 -57 -17 -88 -9 -129 56 -294 68 -175 68 -174
147 -187 35 -5 40 -2 105 63 38 38 73 75 77 83 7 14 12 60 25 255 3 39 8 95
10 125 l5 55 -88 94 c-81 86 -89 93 -104 78z m-211 -229 c-3 -8 -6 -5 -6 6 -1
11 2 17 5 13 3 -3 4 -12 1 -19z m-10 -130 c-3 -8 -6 -5 -6 6 -1 11 2 17 5 13
3 -3 4 -12 1 -19z m66 -188 l65 -165 41 -8 c23 -5 41 -12 41 -17 0 -4 -17 -4
-37 1 -21 5 -41 9 -46 9 -9 0 -10 3 -82 187 -49 127 -64 176 -51 162 3 -2 34
-78 69 -169z"/>
<path d="M1768 2003 c-8 -10 -58 -86 -111 -169 -97 -149 -97 -150 -97 -213 l0
-64 97 -143 c53 -79 99 -142 101 -139 3 2 -39 69 -92 148 l-96 143 2 59 2 60
3 -54 c4 -50 12 -67 99 -193 71 -104 94 -146 92 -166 -2 -21 1 -27 15 -26 21
2 21 -3 2 -22 -18 -18 -20 -49 -3 -38 7 5 8 3 2 -7 -5 -8 -9 -29 -10 -48 -1
-22 1 -29 7 -20 6 9 9 10 9 2 0 -6 -4 -15 -10 -18 -5 -3 -10 -13 -10 -21 0
-10 5 -12 13 -8 8 6 8 3 -1 -9 -15 -18 -7 -41 11 -30 7 3 4 -3 -6 -14 -14 -16
-15 -22 -5 -26 10 -4 10 -6 1 -6 -7 -1 -13 -13 -13 -27 0 -17 4 -23 13 -18 9
5 9 4 0 -6 -10 -11 -9 -16 4 -25 13 -10 13 -14 3 -20 -9 -5 -11 -4 -6 3 4 7 2
12 -3 12 -6 0 -11 -7 -11 -15 0 -8 5 -15 10 -15 6 0 10 -5 10 -11 0 -5 -4 -7
-10 -4 -5 3 -10 -3 -10 -15 0 -14 4 -19 13 -14 9 6 9 4 1 -7 -14 -18 -16 -61
-3 -53 6 3 5 -2 -1 -13 -11 -17 3 -39 110 -182 108 -144 123 -161 138 -149 9
7 42 33 72 58 86 71 86 71 109 62 22 -8 21 -9 -12 -32 -19 -14 -82 -67 -141
-118 l-107 -93 132 -106 c117 -94 189 -137 189 -113 0 4 -11 10 -23 14 -29 7
-267 193 -267 208 0 7 4 7 13 1 6 -6 66 -53 132 -105 l120 -95 75 -7 c129 -12
170 -18 170 -27 0 -5 -10 -7 -22 -4 -52 11 -78 13 -78 5 0 -10 106 -24 120
-15 10 6 50 131 50 156 0 24 -164 257 -188 268 -18 9 -21 15 -14 28 5 10 13
54 17 98 3 44 8 94 10 110 2 17 7 57 10 90 l6 60 -153 222 -153 222 -40 -23
c-24 -14 -66 -26 -105 -30 -36 -4 -83 -9 -105 -11 -22 -3 2 4 54 16 97 21 155
44 146 58 -2 5 3 8 11 7 22 -1 25 19 26 139 0 197 2 186 -44 247 -126 164
-241 308 -248 308 -4 0 -14 -8 -22 -17z m177 -718 c-40 -14 -93 -20 -83 -10 6
6 85 23 108 23 8 0 -3 -6 -25 -13z m-95 -15 c0 -9 -58 -11 -63 -3 -3 5 10 8
29 9 19 0 34 -2 34 -6z m-50 -304 c0 -3 -4 -8 -10 -11 -5 -3 -10 -1 -10 4 0 6
5 11 10 11 6 0 10 -2 10 -4z m111 -373 c57 -76 107 -139 111 -141 11 -5 10
-22 -1 -22 -6 0 -110 133 -219 282 -7 10 -9 18 -4 18 6 0 56 -62 113 -137z
m417 -64 c27 -11 28 -15 2 -22 -11 -3 -18 -2 -15 2 2 4 -25 18 -60 30 -36 13
-62 27 -60 32 3 5 29 -1 58 -12 29 -12 62 -25 75 -30z"/>
<path d="M1104 1952 c-14 -10 -187 -312 -187 -326 0 -14 15 -175 18 -201 1
-11 3 -39 4 -62 2 -64 29 -75 182 -70 l121 3 28 51 c16 28 52 96 80 150 l52
100 -32 74 c-27 63 -47 89 -138 181 -59 59 -109 108 -112 108 -3 0 -10 -4 -16
-8z m-162 -337 c3 -14 1 -25 -3 -25 -5 0 -9 11 -9 25 0 14 2 25 4 25 2 0 6
-11 8 -25z m2 -50 c3 -8 1 -15 -4 -15 -6 0 -10 7 -10 15 0 8 2 15 4 15 2 0 6
-7 10 -15z m14 -150 c0 -22 -3 -18 -9 15 -4 25 -7 61 -7 80 1 29 2 26 8 -15 5
-27 8 -63 8 -80z m43 -90 c16 -9 34 -13 39 -10 5 3 11 1 15 -5 3 -5 -2 -10
-13 -10 -28 0 -82 20 -82 31 0 12 6 11 41 -6z m228 -9 c-8 -7 -159 -13 -159
-5 0 3 37 7 82 8 45 1 80 0 77 -3z"/>
<path d="M2500 1504 l-50 -46 -45 11 c-62 16 -80 4 -92 -60 -10 -49 -9 -57 24
-130 20 -43 39 -76 44 -74 4 3 13 39 20 81 10 65 15 77 36 85 28 10 73 8 73
-4 0 -5 -9 -6 -19 -2 -12 4 -29 -3 -47 -18 l-27 -24 33 -46 c18 -26 37 -47 41
-47 8 0 16 34 22 95 2 26 6 21 23 -33 l20 -63 13 28 c23 50 61 155 61 168 0
18 -63 125 -73 125 -4 0 -30 -21 -57 -46z m29 -110 c10 -9 38 -103 33 -109 -4
-4 -14 17 -23 47 -16 51 -18 53 -55 56 -27 3 -34 6 -24 12 13 8 57 4 69 -6z
m-154 -135 c2 -11 2 -19 -1 -19 -6 0 -54 110 -54 124 1 14 50 -80 55 -105z
m115 8 c0 -7 -12 1 -25 16 -14 15 -25 33 -25 40 0 7 12 -1 25 -16 14 -15 25
-33 25 -40z"/>
<path d="M940 1282 c-8 -9 -23 -32 -34 -52 -10 -19 -56 -103 -102 -187 -46
-84 -84 -155 -84 -158 0 -4 -9 -18 -19 -31 -11 -14 -18 -33 -16 -42 6 -29 95
-334 100 -343 3 -4 32 4 64 18 l59 25 64 -44 c63 -43 65 -43 142 -42 42 1 82
6 87 11 12 12 111 332 111 358 0 17 -43 273 -57 345 -3 14 -8 41 -11 60 -4 19
-8 42 -9 50 -2 8 -4 18 -4 23 -1 4 -53 5 -116 2 -90 -5 -119 -3 -137 9 -20 13
-25 13 -38 -2z m-180 -636 c26 -92 44 -166 40 -166 -6 0 -100 315 -100 335 0
27 18 -24 60 -169z m230 -155 c46 -31 66 -37 130 -42 l75 -6 -78 -1 c-77 -2
-80 -1 -143 40 -35 23 -64 46 -64 51 0 9 5 7 80 -42z"/>
<path d="M830 432 c-77 -59 -92 -81 -169 -249 l-24 -52 39 -66 c37 -63 40 -65
71 -60 47 7 136 18 151 18 7 0 10 7 8 14 -4 9 -1 11 5 7 6 -4 14 -2 18 3 3 6
56 63 116 127 61 65 110 125 110 134 0 15 -218 181 -240 181 -5 1 -44 -25 -85
-57z m-112 -398 c-5 -4 -46 57 -54 81 -3 11 8 -2 25 -29 18 -26 31 -50 29 -52z
m158 7 c-7 -11 -86 -19 -86 -9 0 4 19 9 43 11 23 2 43 4 45 5 2 1 1 -2 -2 -7z
m-96 -15 c0 -2 -11 -6 -25 -8 -14 -3 -25 -1 -25 3 0 5 11 9 25 9 14 0 25 -2
25 -4z"/>
<path d="M2280 82 c0 -5 23 -12 50 -14 28 -1 50 0 50 5 0 4 -12 7 -27 7 -16 0
-38 3 -50 6 -13 4 -23 2 -23 -4z"/>
</g>
</svg>
